<mxfile host="app.diagrams.net" modified="2024-06-03T15:33:38.776Z" agent="Mozilla/5.0 (Macintosh; Intel Mac OS X 10_15_7) AppleWebKit/537.36 (KHTML, like Gecko) Chrome/124.0.0.0 Safari/537.36" etag="CwrqAb9wAHSMpwGaGUE7" version="24.4.13" type="device">
  <diagram name="Page-1" id="-ZYCApN5Wwl5NKDxl_Fw">
    <mxGraphModel dx="1793" dy="994" grid="1" gridSize="10" guides="1" tooltips="1" connect="1" arrows="1" fold="1" page="1" pageScale="1" pageWidth="850" pageHeight="1100" math="0" shadow="0">
      <root>
        <mxCell id="0" />
        <mxCell id="1" parent="0" />
        <mxCell id="ZxzjjC5gdZ-cjDVPfvcw-168" value="" style="rounded=0;whiteSpace=wrap;html=1;fillColor=none;" vertex="1" parent="1">
          <mxGeometry x="41.5" y="4100" width="1728.5" height="1480" as="geometry" />
        </mxCell>
        <mxCell id="ZxzjjC5gdZ-cjDVPfvcw-219" value="Data center 1" style="points=[[0,0],[0.25,0],[0.5,0],[0.75,0],[1,0],[1,0.25],[1,0.5],[1,0.75],[1,1],[0.75,1],[0.5,1],[0.25,1],[0,1],[0,0.75],[0,0.5],[0,0.25]];outlineConnect=0;html=1;whiteSpace=wrap;fontSize=12;fontStyle=0;container=1;pointerEvents=0;collapsible=0;recursiveResize=0;shape=mxgraph.aws4.group;grIcon=mxgraph.aws4.group_corporate_data_center;strokeColor=#6c8ebf;fillColor=#dae8fc;verticalAlign=top;align=left;spacingLeft=30;dashed=0;" vertex="1" parent="1">
          <mxGeometry x="213.25" y="4115.16" width="1526.75" height="677.4200000000001" as="geometry" />
        </mxCell>
        <mxCell id="ZxzjjC5gdZ-cjDVPfvcw-429" value="&lt;b&gt;dev&lt;/b&gt;" style="rounded=0;whiteSpace=wrap;html=1;dashed=1;fillColor=#f5f5f5;fontColor=#333333;strokeColor=#666666;align=left;verticalAlign=bottom;spacingLeft=4;spacingBottom=2;" vertex="1" parent="ZxzjjC5gdZ-cjDVPfvcw-219">
          <mxGeometry x="140.49" y="127.42000000000007" width="1357.01" height="500" as="geometry" />
        </mxCell>
        <mxCell id="ZxzjjC5gdZ-cjDVPfvcw-430" value="&lt;b&gt;stage&lt;/b&gt;" style="rounded=0;whiteSpace=wrap;html=1;dashed=1;fillColor=#f5f5f5;fontColor=#333333;strokeColor=#666666;align=left;verticalAlign=bottom;spacingLeft=4;spacingBottom=2;" vertex="1" parent="ZxzjjC5gdZ-cjDVPfvcw-219">
          <mxGeometry x="99" y="87.42000000000007" width="1358.5" height="510" as="geometry" />
        </mxCell>
        <mxCell id="ZxzjjC5gdZ-cjDVPfvcw-431" value="&lt;b&gt;prod&lt;/b&gt;" style="rounded=0;whiteSpace=wrap;html=1;dashed=1;fillColor=#f5f5f5;fontColor=#333333;strokeColor=#666666;align=left;verticalAlign=bottom;spacingLeft=6;spacingBottom=2;" vertex="1" parent="ZxzjjC5gdZ-cjDVPfvcw-219">
          <mxGeometry x="52" y="55.149999999999636" width="1365.5" height="512.27" as="geometry" />
        </mxCell>
        <mxCell id="ZxzjjC5gdZ-cjDVPfvcw-432" value="&lt;div style=&quot;font-size: 8px;&quot;&gt;&lt;/div&gt;" style="verticalLabelPosition=middle;html=1;verticalAlign=top;strokeWidth=1;align=center;outlineConnect=0;dashed=0;outlineConnect=0;shape=mxgraph.aws3d.dataServer;strokeColor=#666666;aspect=fixed;fillColor=#f5f5f5;labelPosition=center;fontStyle=1;fontSize=33;fontColor=#333333;" vertex="1" parent="ZxzjjC5gdZ-cjDVPfvcw-219">
          <mxGeometry x="459" y="77.92000000000007" width="123" height="106" as="geometry" />
        </mxCell>
        <mxCell id="ZxzjjC5gdZ-cjDVPfvcw-433" value="&lt;div style=&quot;font-size: 8px;&quot;&gt;&lt;/div&gt;" style="verticalLabelPosition=middle;html=1;verticalAlign=top;strokeWidth=1;align=center;outlineConnect=0;dashed=0;outlineConnect=0;shape=mxgraph.aws3d.dataServer;strokeColor=#666666;aspect=fixed;fillColor=#f5f5f5;labelPosition=center;fontStyle=1;fontSize=33;fontColor=#333333;" vertex="1" parent="ZxzjjC5gdZ-cjDVPfvcw-219">
          <mxGeometry x="439" y="117.42000000000007" width="123" height="106" as="geometry" />
        </mxCell>
        <mxCell id="ZxzjjC5gdZ-cjDVPfvcw-434" style="edgeStyle=orthogonalEdgeStyle;rounded=0;orthogonalLoop=1;jettySize=auto;html=1;" edge="1" parent="ZxzjjC5gdZ-cjDVPfvcw-219" source="ZxzjjC5gdZ-cjDVPfvcw-435" target="ZxzjjC5gdZ-cjDVPfvcw-473">
          <mxGeometry relative="1" as="geometry">
            <Array as="points">
              <mxPoint x="480.5" y="286.4200000000001" />
            </Array>
          </mxGeometry>
        </mxCell>
        <mxCell id="ZxzjjC5gdZ-cjDVPfvcw-435" value="&lt;div style=&quot;font-size: 8px;&quot;&gt;&lt;/div&gt;" style="verticalLabelPosition=middle;html=1;verticalAlign=top;strokeWidth=1;align=center;outlineConnect=0;dashed=0;outlineConnect=0;shape=mxgraph.aws3d.dataServer;strokeColor=#666666;aspect=fixed;fillColor=#f5f5f5;labelPosition=center;fontStyle=1;fontSize=33;fontColor=#333333;" vertex="1" parent="ZxzjjC5gdZ-cjDVPfvcw-219">
          <mxGeometry x="419" y="158.42000000000007" width="123" height="106" as="geometry" />
        </mxCell>
        <mxCell id="ZxzjjC5gdZ-cjDVPfvcw-436" value="Microservices" style="text;html=1;align=center;verticalAlign=middle;whiteSpace=wrap;rounded=0;" vertex="1" parent="ZxzjjC5gdZ-cjDVPfvcw-219">
          <mxGeometry x="561.25" y="526.6199999999999" width="95.5" height="30" as="geometry" />
        </mxCell>
        <mxCell id="ZxzjjC5gdZ-cjDVPfvcw-437" style="edgeStyle=orthogonalEdgeStyle;rounded=0;orthogonalLoop=1;jettySize=auto;html=1;" edge="1" parent="ZxzjjC5gdZ-cjDVPfvcw-219" source="ZxzjjC5gdZ-cjDVPfvcw-438" target="ZxzjjC5gdZ-cjDVPfvcw-478">
          <mxGeometry relative="1" as="geometry">
            <Array as="points">
              <mxPoint x="1244.5" y="211.42000000000007" />
              <mxPoint x="1244.5" y="297.4200000000001" />
            </Array>
          </mxGeometry>
        </mxCell>
        <mxCell id="ZxzjjC5gdZ-cjDVPfvcw-438" value="" style="verticalLabelPosition=bottom;html=1;verticalAlign=top;strokeWidth=1;align=center;outlineConnect=0;dashed=0;outlineConnect=0;shape=mxgraph.aws3d.rds;fillColor=#ECECEC;strokeColor=#5E5E5E;aspect=fixed;" vertex="1" parent="ZxzjjC5gdZ-cjDVPfvcw-219">
          <mxGeometry x="1079" y="144.92000000000007" width="123" height="133" as="geometry" />
        </mxCell>
        <mxCell id="ZxzjjC5gdZ-cjDVPfvcw-439" value="Database" style="text;html=1;align=center;verticalAlign=middle;whiteSpace=wrap;rounded=0;" vertex="1" parent="ZxzjjC5gdZ-cjDVPfvcw-219">
          <mxGeometry x="1110.5" y="286.3299999999999" width="60" height="30" as="geometry" />
        </mxCell>
        <mxCell id="ZxzjjC5gdZ-cjDVPfvcw-440" style="edgeStyle=orthogonalEdgeStyle;rounded=0;orthogonalLoop=1;jettySize=auto;html=1;" edge="1" parent="ZxzjjC5gdZ-cjDVPfvcw-219" source="ZxzjjC5gdZ-cjDVPfvcw-442" target="ZxzjjC5gdZ-cjDVPfvcw-435">
          <mxGeometry relative="1" as="geometry" />
        </mxCell>
        <mxCell id="ZxzjjC5gdZ-cjDVPfvcw-441" style="edgeStyle=orthogonalEdgeStyle;rounded=0;orthogonalLoop=1;jettySize=auto;html=1;" edge="1" parent="ZxzjjC5gdZ-cjDVPfvcw-219" source="ZxzjjC5gdZ-cjDVPfvcw-442" target="ZxzjjC5gdZ-cjDVPfvcw-452">
          <mxGeometry relative="1" as="geometry">
            <Array as="points">
              <mxPoint x="379" y="211.42000000000007" />
              <mxPoint x="379" y="360.4200000000001" />
            </Array>
          </mxGeometry>
        </mxCell>
        <mxCell id="ZxzjjC5gdZ-cjDVPfvcw-442" value="" style="verticalLabelPosition=bottom;html=1;verticalAlign=top;strokeWidth=1;align=center;outlineConnect=0;dashed=0;outlineConnect=0;shape=mxgraph.aws3d.elasticLoadBalancing;fillColor=#ECECEC;strokeColor=#5E5E5E;aspect=fixed;" vertex="1" parent="ZxzjjC5gdZ-cjDVPfvcw-219">
          <mxGeometry x="228.75" y="167.32999999999993" width="92" height="88.17" as="geometry" />
        </mxCell>
        <mxCell id="ZxzjjC5gdZ-cjDVPfvcw-443" value="Load balancer" style="text;html=1;align=center;verticalAlign=middle;whiteSpace=wrap;rounded=0;" vertex="1" parent="ZxzjjC5gdZ-cjDVPfvcw-219">
          <mxGeometry x="239" y="286.3299999999999" width="94.25" height="30" as="geometry" />
        </mxCell>
        <mxCell id="ZxzjjC5gdZ-cjDVPfvcw-444" style="edgeStyle=orthogonalEdgeStyle;rounded=0;orthogonalLoop=1;jettySize=auto;html=1;" edge="1" parent="ZxzjjC5gdZ-cjDVPfvcw-219" source="ZxzjjC5gdZ-cjDVPfvcw-445" target="ZxzjjC5gdZ-cjDVPfvcw-442">
          <mxGeometry relative="1" as="geometry" />
        </mxCell>
        <mxCell id="ZxzjjC5gdZ-cjDVPfvcw-445" value="" style="verticalLabelPosition=bottom;html=1;verticalAlign=top;strokeWidth=1;align=center;outlineConnect=0;dashed=0;outlineConnect=0;shape=mxgraph.aws3d.cloudfront;fillColor=#ECECEC;strokeColor=#5E5E5E;aspect=fixed;" vertex="1" parent="ZxzjjC5gdZ-cjDVPfvcw-219">
          <mxGeometry x="79" y="147.92000000000007" width="77.03" height="126" as="geometry" />
        </mxCell>
        <mxCell id="ZxzjjC5gdZ-cjDVPfvcw-446" value="CDN" style="text;html=1;align=center;verticalAlign=middle;whiteSpace=wrap;rounded=0;" vertex="1" parent="ZxzjjC5gdZ-cjDVPfvcw-219">
          <mxGeometry x="70.38999999999987" y="286.3299999999999" width="94.25" height="30" as="geometry" />
        </mxCell>
        <mxCell id="ZxzjjC5gdZ-cjDVPfvcw-447" value="Cache" style="text;html=1;align=center;verticalAlign=middle;whiteSpace=wrap;rounded=0;" vertex="1" parent="ZxzjjC5gdZ-cjDVPfvcw-219">
          <mxGeometry x="920.4899999999998" y="286.3299999999999" width="60" height="30" as="geometry" />
        </mxCell>
        <mxCell id="ZxzjjC5gdZ-cjDVPfvcw-448" style="edgeStyle=orthogonalEdgeStyle;rounded=0;orthogonalLoop=1;jettySize=auto;html=1;" edge="1" parent="ZxzjjC5gdZ-cjDVPfvcw-219" source="ZxzjjC5gdZ-cjDVPfvcw-449" target="ZxzjjC5gdZ-cjDVPfvcw-438">
          <mxGeometry relative="1" as="geometry" />
        </mxCell>
        <mxCell id="ZxzjjC5gdZ-cjDVPfvcw-449" value="" style="verticalLabelPosition=bottom;html=1;verticalAlign=top;strokeWidth=1;align=center;outlineConnect=0;dashed=0;outlineConnect=0;shape=mxgraph.aws3d.dynamoDb;fillColor=#ECECEC;strokeColor=#5E5E5E;aspect=fixed;" vertex="1" parent="ZxzjjC5gdZ-cjDVPfvcw-219">
          <mxGeometry x="899.9000000000001" y="152.92000000000007" width="101.19" height="117.08" as="geometry" />
        </mxCell>
        <mxCell id="ZxzjjC5gdZ-cjDVPfvcw-450" value="" style="outlineConnect=0;dashed=0;verticalLabelPosition=bottom;verticalAlign=top;align=center;html=1;shape=mxgraph.aws3.virtual_private_cloud;fillColor=#CCCCCC;gradientColor=none;" vertex="1" parent="ZxzjjC5gdZ-cjDVPfvcw-219">
          <mxGeometry x="22" y="37.42000000000007" width="79.5" height="54" as="geometry" />
        </mxCell>
        <mxCell id="ZxzjjC5gdZ-cjDVPfvcw-451" style="edgeStyle=orthogonalEdgeStyle;rounded=0;orthogonalLoop=1;jettySize=auto;html=1;" edge="1" parent="ZxzjjC5gdZ-cjDVPfvcw-219" source="ZxzjjC5gdZ-cjDVPfvcw-452" target="ZxzjjC5gdZ-cjDVPfvcw-473">
          <mxGeometry relative="1" as="geometry">
            <Array as="points">
              <mxPoint x="522.5" y="287.4200000000001" />
            </Array>
          </mxGeometry>
        </mxCell>
        <mxCell id="ZxzjjC5gdZ-cjDVPfvcw-452" value="&lt;div style=&quot;font-size: 8px;&quot;&gt;&lt;/div&gt;" style="verticalLabelPosition=middle;html=1;verticalAlign=top;strokeWidth=1;align=center;outlineConnect=0;dashed=0;outlineConnect=0;shape=mxgraph.aws3d.dataServer;strokeColor=#666666;aspect=fixed;fillColor=#f5f5f5;labelPosition=center;fontStyle=1;fontSize=33;fontColor=#333333;" vertex="1" parent="ZxzjjC5gdZ-cjDVPfvcw-219">
          <mxGeometry x="460.5" y="307.4200000000001" width="123" height="106" as="geometry" />
        </mxCell>
        <mxCell id="ZxzjjC5gdZ-cjDVPfvcw-453" value="&lt;div style=&quot;font-size: 8px;&quot;&gt;&lt;/div&gt;" style="verticalLabelPosition=middle;html=1;verticalAlign=top;strokeWidth=1;align=center;outlineConnect=0;dashed=0;outlineConnect=0;shape=mxgraph.aws3d.dataServer;strokeColor=#666666;aspect=fixed;fillColor=#f5f5f5;labelPosition=center;fontStyle=1;fontSize=33;fontColor=#333333;" vertex="1" parent="ZxzjjC5gdZ-cjDVPfvcw-219">
          <mxGeometry x="440.5" y="346.9200000000001" width="123" height="106" as="geometry" />
        </mxCell>
        <mxCell id="ZxzjjC5gdZ-cjDVPfvcw-454" value="&lt;div style=&quot;font-size: 8px;&quot;&gt;&lt;/div&gt;" style="verticalLabelPosition=middle;html=1;verticalAlign=top;strokeWidth=1;align=center;outlineConnect=0;dashed=0;outlineConnect=0;shape=mxgraph.aws3d.dataServer;strokeColor=#666666;aspect=fixed;fillColor=#f5f5f5;labelPosition=center;fontStyle=1;fontSize=33;fontColor=#333333;" vertex="1" parent="ZxzjjC5gdZ-cjDVPfvcw-219">
          <mxGeometry x="699" y="78.42000000000007" width="123" height="106" as="geometry" />
        </mxCell>
        <mxCell id="ZxzjjC5gdZ-cjDVPfvcw-455" value="&lt;div style=&quot;font-size: 8px;&quot;&gt;&lt;/div&gt;" style="verticalLabelPosition=middle;html=1;verticalAlign=top;strokeWidth=1;align=center;outlineConnect=0;dashed=0;outlineConnect=0;shape=mxgraph.aws3d.dataServer;strokeColor=#666666;aspect=fixed;fillColor=#f5f5f5;labelPosition=center;fontStyle=1;fontSize=33;fontColor=#333333;" vertex="1" parent="ZxzjjC5gdZ-cjDVPfvcw-219">
          <mxGeometry x="679" y="117.92000000000007" width="123" height="106" as="geometry" />
        </mxCell>
        <mxCell id="ZxzjjC5gdZ-cjDVPfvcw-456" style="edgeStyle=orthogonalEdgeStyle;rounded=0;orthogonalLoop=1;jettySize=auto;html=1;" edge="1" parent="ZxzjjC5gdZ-cjDVPfvcw-219" source="ZxzjjC5gdZ-cjDVPfvcw-458" target="ZxzjjC5gdZ-cjDVPfvcw-473">
          <mxGeometry relative="1" as="geometry">
            <Array as="points">
              <mxPoint x="720.5" y="286.4200000000001" />
            </Array>
          </mxGeometry>
        </mxCell>
        <mxCell id="ZxzjjC5gdZ-cjDVPfvcw-457" style="edgeStyle=orthogonalEdgeStyle;rounded=0;orthogonalLoop=1;jettySize=auto;html=1;startArrow=classic;startFill=1;" edge="1" parent="ZxzjjC5gdZ-cjDVPfvcw-219" source="ZxzjjC5gdZ-cjDVPfvcw-458" target="ZxzjjC5gdZ-cjDVPfvcw-476">
          <mxGeometry relative="1" as="geometry">
            <Array as="points">
              <mxPoint x="807.5" y="359.4200000000001" />
            </Array>
          </mxGeometry>
        </mxCell>
        <mxCell id="ZxzjjC5gdZ-cjDVPfvcw-458" value="&lt;div style=&quot;font-size: 8px;&quot;&gt;&lt;/div&gt;" style="verticalLabelPosition=middle;html=1;verticalAlign=top;strokeWidth=1;align=center;outlineConnect=0;dashed=0;outlineConnect=0;shape=mxgraph.aws3d.dataServer;strokeColor=#666666;aspect=fixed;fillColor=#f5f5f5;labelPosition=center;fontStyle=1;fontSize=33;fontColor=#333333;" vertex="1" parent="ZxzjjC5gdZ-cjDVPfvcw-219">
          <mxGeometry x="658.99" y="306.6700000000001" width="123" height="106" as="geometry" />
        </mxCell>
        <mxCell id="ZxzjjC5gdZ-cjDVPfvcw-459" value="&lt;div style=&quot;font-size: 8px;&quot;&gt;&lt;/div&gt;" style="verticalLabelPosition=middle;html=1;verticalAlign=top;strokeWidth=1;align=center;outlineConnect=0;dashed=0;outlineConnect=0;shape=mxgraph.aws3d.dataServer;strokeColor=#666666;aspect=fixed;fillColor=#f5f5f5;labelPosition=center;fontStyle=1;fontSize=33;fontColor=#333333;" vertex="1" parent="ZxzjjC5gdZ-cjDVPfvcw-219">
          <mxGeometry x="648.99" y="346.1700000000001" width="123" height="106" as="geometry" />
        </mxCell>
        <mxCell id="ZxzjjC5gdZ-cjDVPfvcw-460" value="&lt;div style=&quot;font-size: 8px;&quot;&gt;&lt;/div&gt;" style="verticalLabelPosition=middle;html=1;verticalAlign=top;strokeWidth=1;align=center;outlineConnect=0;dashed=0;outlineConnect=0;shape=mxgraph.aws3d.dataServer;strokeColor=#666666;aspect=fixed;fillColor=#f5f5f5;labelPosition=center;fontStyle=1;fontSize=33;fontColor=#333333;" vertex="1" parent="ZxzjjC5gdZ-cjDVPfvcw-219">
          <mxGeometry x="638.99" y="387.1700000000001" width="123" height="106" as="geometry" />
        </mxCell>
        <mxCell id="ZxzjjC5gdZ-cjDVPfvcw-461" style="edgeStyle=orthogonalEdgeStyle;rounded=0;orthogonalLoop=1;jettySize=auto;html=1;" edge="1" parent="ZxzjjC5gdZ-cjDVPfvcw-219" source="ZxzjjC5gdZ-cjDVPfvcw-462" target="ZxzjjC5gdZ-cjDVPfvcw-478">
          <mxGeometry relative="1" as="geometry">
            <Array as="points">
              <mxPoint x="1244.5" y="441.4200000000001" />
              <mxPoint x="1244.5" y="357.4200000000001" />
            </Array>
          </mxGeometry>
        </mxCell>
        <mxCell id="ZxzjjC5gdZ-cjDVPfvcw-462" value="" style="verticalLabelPosition=bottom;html=1;verticalAlign=top;strokeWidth=1;align=center;outlineConnect=0;dashed=0;outlineConnect=0;shape=mxgraph.aws3d.rds;fillColor=#ECECEC;strokeColor=#5E5E5E;aspect=fixed;" vertex="1" parent="ZxzjjC5gdZ-cjDVPfvcw-219">
          <mxGeometry x="1079" y="375.21000000000004" width="123" height="133" as="geometry" />
        </mxCell>
        <mxCell id="ZxzjjC5gdZ-cjDVPfvcw-463" value="Database" style="text;html=1;align=center;verticalAlign=middle;whiteSpace=wrap;rounded=0;" vertex="1" parent="ZxzjjC5gdZ-cjDVPfvcw-219">
          <mxGeometry x="1110.5" y="516.6199999999999" width="60" height="30" as="geometry" />
        </mxCell>
        <mxCell id="ZxzjjC5gdZ-cjDVPfvcw-464" value="Cache" style="text;html=1;align=center;verticalAlign=middle;whiteSpace=wrap;rounded=0;" vertex="1" parent="ZxzjjC5gdZ-cjDVPfvcw-219">
          <mxGeometry x="920.4899999999998" y="516.6199999999999" width="60" height="30" as="geometry" />
        </mxCell>
        <mxCell id="ZxzjjC5gdZ-cjDVPfvcw-465" style="edgeStyle=orthogonalEdgeStyle;rounded=0;orthogonalLoop=1;jettySize=auto;html=1;" edge="1" parent="ZxzjjC5gdZ-cjDVPfvcw-219" source="ZxzjjC5gdZ-cjDVPfvcw-466" target="ZxzjjC5gdZ-cjDVPfvcw-462">
          <mxGeometry relative="1" as="geometry" />
        </mxCell>
        <mxCell id="ZxzjjC5gdZ-cjDVPfvcw-466" value="" style="verticalLabelPosition=bottom;html=1;verticalAlign=top;strokeWidth=1;align=center;outlineConnect=0;dashed=0;outlineConnect=0;shape=mxgraph.aws3d.dynamoDb;fillColor=#ECECEC;strokeColor=#5E5E5E;aspect=fixed;" vertex="1" parent="ZxzjjC5gdZ-cjDVPfvcw-219">
          <mxGeometry x="899.9000000000001" y="383.21000000000004" width="101.19" height="117.08" as="geometry" />
        </mxCell>
        <mxCell id="ZxzjjC5gdZ-cjDVPfvcw-467" value="&lt;div style=&quot;font-size: 8px;&quot;&gt;&lt;/div&gt;" style="verticalLabelPosition=middle;html=1;verticalAlign=top;strokeWidth=1;align=center;outlineConnect=0;dashed=0;outlineConnect=0;shape=mxgraph.aws3d.dataServer;strokeColor=#666666;aspect=fixed;fillColor=#f5f5f5;labelPosition=center;fontStyle=1;fontSize=33;fontColor=#333333;" vertex="1" parent="ZxzjjC5gdZ-cjDVPfvcw-219">
          <mxGeometry x="420.5" y="387.9200000000001" width="123" height="106" as="geometry" />
        </mxCell>
        <mxCell id="ZxzjjC5gdZ-cjDVPfvcw-468" style="edgeStyle=orthogonalEdgeStyle;rounded=0;orthogonalLoop=1;jettySize=auto;html=1;" edge="1" parent="ZxzjjC5gdZ-cjDVPfvcw-219" source="ZxzjjC5gdZ-cjDVPfvcw-470" target="ZxzjjC5gdZ-cjDVPfvcw-473">
          <mxGeometry relative="1" as="geometry">
            <Array as="points">
              <mxPoint x="720.5" y="286.4200000000001" />
            </Array>
          </mxGeometry>
        </mxCell>
        <mxCell id="ZxzjjC5gdZ-cjDVPfvcw-469" style="edgeStyle=orthogonalEdgeStyle;rounded=0;orthogonalLoop=1;jettySize=auto;html=1;startArrow=classic;startFill=1;" edge="1" parent="ZxzjjC5gdZ-cjDVPfvcw-219" source="ZxzjjC5gdZ-cjDVPfvcw-470" target="ZxzjjC5gdZ-cjDVPfvcw-476">
          <mxGeometry relative="1" as="geometry">
            <Array as="points">
              <mxPoint x="807.5" y="227.42000000000007" />
            </Array>
          </mxGeometry>
        </mxCell>
        <mxCell id="ZxzjjC5gdZ-cjDVPfvcw-470" value="&lt;div style=&quot;font-size: 8px;&quot;&gt;&lt;/div&gt;" style="verticalLabelPosition=middle;html=1;verticalAlign=top;strokeWidth=1;align=center;outlineConnect=0;dashed=0;outlineConnect=0;shape=mxgraph.aws3d.dataServer;strokeColor=#666666;aspect=fixed;fillColor=#f5f5f5;labelPosition=center;fontStyle=1;fontSize=33;fontColor=#333333;" vertex="1" parent="ZxzjjC5gdZ-cjDVPfvcw-219">
          <mxGeometry x="659" y="158.92000000000007" width="123" height="106" as="geometry" />
        </mxCell>
        <mxCell id="ZxzjjC5gdZ-cjDVPfvcw-471" value="" style="endArrow=classic;html=1;rounded=0;" edge="1" parent="ZxzjjC5gdZ-cjDVPfvcw-219" source="ZxzjjC5gdZ-cjDVPfvcw-470" target="ZxzjjC5gdZ-cjDVPfvcw-449">
          <mxGeometry width="50" height="50" relative="1" as="geometry">
            <mxPoint x="709" y="347.4200000000001" as="sourcePoint" />
            <mxPoint x="759" y="297.4200000000001" as="targetPoint" />
          </mxGeometry>
        </mxCell>
        <mxCell id="ZxzjjC5gdZ-cjDVPfvcw-472" value="" style="endArrow=classic;html=1;rounded=0;" edge="1" parent="ZxzjjC5gdZ-cjDVPfvcw-219" source="ZxzjjC5gdZ-cjDVPfvcw-460" target="ZxzjjC5gdZ-cjDVPfvcw-466">
          <mxGeometry width="50" height="50" relative="1" as="geometry">
            <mxPoint x="709" y="347.4200000000001" as="sourcePoint" />
            <mxPoint x="759" y="297.4200000000001" as="targetPoint" />
          </mxGeometry>
        </mxCell>
        <mxCell id="ZxzjjC5gdZ-cjDVPfvcw-473" value="" style="sketch=0;outlineConnect=0;fontColor=#232F3E;gradientColor=none;fillColor=#8C4FFF;strokeColor=none;dashed=0;verticalLabelPosition=bottom;verticalAlign=top;align=center;html=1;fontSize=12;fontStyle=0;aspect=fixed;pointerEvents=1;shape=mxgraph.aws4.virtual_router;" vertex="1" parent="ZxzjjC5gdZ-cjDVPfvcw-219">
          <mxGeometry x="583.5" y="255.5" width="57.75" height="57.75" as="geometry" />
        </mxCell>
        <mxCell id="ZxzjjC5gdZ-cjDVPfvcw-474" value="Service mesh" style="text;html=1;align=center;verticalAlign=middle;whiteSpace=wrap;rounded=0;" vertex="1" parent="ZxzjjC5gdZ-cjDVPfvcw-219">
          <mxGeometry x="565.38" y="307.4200000000001" width="94" height="30" as="geometry" />
        </mxCell>
        <mxCell id="ZxzjjC5gdZ-cjDVPfvcw-475" style="edgeStyle=orthogonalEdgeStyle;rounded=0;orthogonalLoop=1;jettySize=auto;html=1;" edge="1" parent="ZxzjjC5gdZ-cjDVPfvcw-219">
          <mxGeometry relative="1" as="geometry">
            <mxPoint x="904.3700000000001" y="331.083529411766" as="sourcePoint" />
            <mxPoint x="1289.6399999999999" y="330.39999999999964" as="targetPoint" />
            <Array as="points">
              <mxPoint x="1096.5" y="331.4200000000001" />
            </Array>
          </mxGeometry>
        </mxCell>
        <mxCell id="ZxzjjC5gdZ-cjDVPfvcw-476" value="" style="html=1;outlineConnect=0;fillColor=#CCCCCC;strokeColor=#6881B3;gradientColor=none;gradientDirection=north;strokeWidth=2;shape=mxgraph.networks.bus;gradientColor=none;gradientDirection=north;fontColor=#ffffff;perimeter=backbonePerimeter;backboneSize=20;" vertex="1" parent="ZxzjjC5gdZ-cjDVPfvcw-219">
          <mxGeometry x="800.5" y="321.28000000000065" width="101.5" height="20" as="geometry" />
        </mxCell>
        <mxCell id="ZxzjjC5gdZ-cjDVPfvcw-477" value="Event bus" style="text;html=1;align=center;verticalAlign=middle;whiteSpace=wrap;rounded=0;" vertex="1" parent="ZxzjjC5gdZ-cjDVPfvcw-219">
          <mxGeometry x="804.25" y="341.28000000000065" width="94" height="30" as="geometry" />
        </mxCell>
        <mxCell id="ZxzjjC5gdZ-cjDVPfvcw-478" value="" style="verticalLabelPosition=bottom;html=1;verticalAlign=top;strokeWidth=1;align=center;outlineConnect=0;dashed=0;outlineConnect=0;shape=mxgraph.aws3d.redshift;fillColor=#ECECEC;strokeColor=#5E5E5E;aspect=fixed;" vertex="1" parent="ZxzjjC5gdZ-cjDVPfvcw-219">
          <mxGeometry x="1287.27" y="275.9899999999998" width="101.73" height="128.86" as="geometry" />
        </mxCell>
        <mxCell id="ZxzjjC5gdZ-cjDVPfvcw-479" value="Data warehouse" style="text;html=1;align=center;verticalAlign=middle;whiteSpace=wrap;rounded=0;" vertex="1" parent="ZxzjjC5gdZ-cjDVPfvcw-219">
          <mxGeometry x="1289.64" y="413.4200000000001" width="99.36" height="30" as="geometry" />
        </mxCell>
        <mxCell id="ZxzjjC5gdZ-cjDVPfvcw-114" value="" style="rounded=0;whiteSpace=wrap;html=1;fillColor=none;" vertex="1" parent="1">
          <mxGeometry x="40" y="2150" width="1490" height="630" as="geometry" />
        </mxCell>
        <mxCell id="ZxzjjC5gdZ-cjDVPfvcw-115" value="&lt;b&gt;dev&lt;/b&gt;" style="rounded=0;whiteSpace=wrap;html=1;dashed=1;fillColor=#f5f5f5;fontColor=#333333;strokeColor=#666666;align=left;verticalAlign=bottom;spacingLeft=4;spacingBottom=2;" vertex="1" parent="1">
          <mxGeometry x="311.49" y="2250" width="1188.51" height="500" as="geometry" />
        </mxCell>
        <mxCell id="ZxzjjC5gdZ-cjDVPfvcw-117" value="&lt;b&gt;stage&lt;/b&gt;" style="rounded=0;whiteSpace=wrap;html=1;dashed=1;fillColor=#f5f5f5;fontColor=#333333;strokeColor=#666666;align=left;verticalAlign=bottom;spacingLeft=4;spacingBottom=2;" vertex="1" parent="1">
          <mxGeometry x="270" y="2210" width="1190" height="510" as="geometry" />
        </mxCell>
        <mxCell id="ZxzjjC5gdZ-cjDVPfvcw-118" value="&lt;b&gt;prod&lt;/b&gt;" style="rounded=0;whiteSpace=wrap;html=1;dashed=1;fillColor=#f5f5f5;fontColor=#333333;strokeColor=#666666;align=left;verticalAlign=bottom;spacingLeft=6;spacingBottom=2;" vertex="1" parent="1">
          <mxGeometry x="233" y="2177.73" width="1187" height="512.27" as="geometry" />
        </mxCell>
        <mxCell id="ZxzjjC5gdZ-cjDVPfvcw-88" value="" style="rounded=0;whiteSpace=wrap;html=1;fillColor=none;" vertex="1" parent="1">
          <mxGeometry x="40" y="1730" width="1220" height="400" as="geometry" />
        </mxCell>
        <mxCell id="ZxzjjC5gdZ-cjDVPfvcw-113" value="&lt;b&gt;dev&lt;/b&gt;" style="rounded=0;whiteSpace=wrap;html=1;dashed=1;fillColor=#f5f5f5;fontColor=#333333;strokeColor=#666666;align=left;verticalAlign=bottom;spacingLeft=4;spacingBottom=2;" vertex="1" parent="1">
          <mxGeometry x="310" y="1810" width="920" height="290" as="geometry" />
        </mxCell>
        <mxCell id="ZxzjjC5gdZ-cjDVPfvcw-53" value="" style="rounded=0;whiteSpace=wrap;html=1;fillColor=none;" vertex="1" parent="1">
          <mxGeometry x="40" y="1380" width="1150" height="330" as="geometry" />
        </mxCell>
        <mxCell id="ZxzjjC5gdZ-cjDVPfvcw-85" value="" style="group" vertex="1" connectable="0" parent="1">
          <mxGeometry x="203" y="1390" width="960" height="307.73" as="geometry" />
        </mxCell>
        <mxCell id="ZxzjjC5gdZ-cjDVPfvcw-86" value="" style="rounded=0;whiteSpace=wrap;html=1;dashed=1;fillColor=#f5f5f5;fontColor=#333333;strokeColor=#666666;align=left;verticalAlign=bottom;" vertex="1" parent="ZxzjjC5gdZ-cjDVPfvcw-85">
          <mxGeometry x="30" y="17.73" width="930" height="290" as="geometry" />
        </mxCell>
        <mxCell id="ZxzjjC5gdZ-cjDVPfvcw-87" value="" style="outlineConnect=0;dashed=0;verticalLabelPosition=bottom;verticalAlign=top;align=center;html=1;shape=mxgraph.aws3.virtual_private_cloud;fillColor=#CCCCCC;gradientColor=none;" vertex="1" parent="ZxzjjC5gdZ-cjDVPfvcw-85">
          <mxGeometry width="79.5" height="54" as="geometry" />
        </mxCell>
        <mxCell id="ZxzjjC5gdZ-cjDVPfvcw-21" value="" style="rounded=0;whiteSpace=wrap;html=1;fillColor=none;" vertex="1" parent="1">
          <mxGeometry x="40" y="1030" width="800" height="330" as="geometry" />
        </mxCell>
        <mxCell id="ZxzjjC5gdZ-cjDVPfvcw-81" value="" style="group" vertex="1" connectable="0" parent="1">
          <mxGeometry x="190" y="1038.27" width="630" height="307.73" as="geometry" />
        </mxCell>
        <mxCell id="ZxzjjC5gdZ-cjDVPfvcw-79" value="" style="rounded=0;whiteSpace=wrap;html=1;dashed=1;fillColor=#f5f5f5;fontColor=#333333;strokeColor=#666666;align=left;verticalAlign=bottom;" vertex="1" parent="ZxzjjC5gdZ-cjDVPfvcw-81">
          <mxGeometry x="30" y="17.730000000000018" width="600" height="290" as="geometry" />
        </mxCell>
        <mxCell id="ZxzjjC5gdZ-cjDVPfvcw-80" value="" style="outlineConnect=0;dashed=0;verticalLabelPosition=bottom;verticalAlign=top;align=center;html=1;shape=mxgraph.aws3.virtual_private_cloud;fillColor=#CCCCCC;gradientColor=none;" vertex="1" parent="ZxzjjC5gdZ-cjDVPfvcw-81">
          <mxGeometry width="79.5" height="54" as="geometry" />
        </mxCell>
        <mxCell id="ZxzjjC5gdZ-cjDVPfvcw-35" value="&lt;div style=&quot;font-size: 8px;&quot;&gt;&lt;/div&gt;" style="verticalLabelPosition=middle;html=1;verticalAlign=top;strokeWidth=1;align=center;outlineConnect=0;dashed=0;outlineConnect=0;shape=mxgraph.aws3d.dataServer;strokeColor=#666666;aspect=fixed;fillColor=#f5f5f5;labelPosition=center;fontStyle=1;fontSize=33;fontColor=#333333;" vertex="1" parent="1">
          <mxGeometry x="480" y="1080.5" width="123" height="106" as="geometry" />
        </mxCell>
        <mxCell id="ZxzjjC5gdZ-cjDVPfvcw-34" value="&lt;div style=&quot;font-size: 8px;&quot;&gt;&lt;/div&gt;" style="verticalLabelPosition=middle;html=1;verticalAlign=top;strokeWidth=1;align=center;outlineConnect=0;dashed=0;outlineConnect=0;shape=mxgraph.aws3d.dataServer;strokeColor=#666666;aspect=fixed;fillColor=#f5f5f5;labelPosition=center;fontStyle=1;fontSize=33;fontColor=#333333;" vertex="1" parent="1">
          <mxGeometry x="460" y="1120" width="123" height="106" as="geometry" />
        </mxCell>
        <mxCell id="LBr9hsCO0pmCrkEfYy0i-30" value="" style="rounded=0;whiteSpace=wrap;html=1;fillColor=none;" parent="1" vertex="1">
          <mxGeometry x="40" y="330" width="370" height="330" as="geometry" />
        </mxCell>
        <mxCell id="LBr9hsCO0pmCrkEfYy0i-31" value="1" style="ellipse;whiteSpace=wrap;html=1;aspect=fixed;fontSize=27;fontStyle=1;spacing=2;spacingLeft=2;spacingTop=1;" parent="1" vertex="1">
          <mxGeometry x="50" y="345.16227156727587" width="47.103155911446066" height="47.103155911446066" as="geometry" />
        </mxCell>
        <mxCell id="ZxzjjC5gdZ-cjDVPfvcw-3" style="edgeStyle=orthogonalEdgeStyle;rounded=0;orthogonalLoop=1;jettySize=auto;html=1;" edge="1" parent="1" source="LBr9hsCO0pmCrkEfYy0i-7" target="LBr9hsCO0pmCrkEfYy0i-4">
          <mxGeometry relative="1" as="geometry" />
        </mxCell>
        <mxCell id="LBr9hsCO0pmCrkEfYy0i-7" value="" style="verticalLabelPosition=bottom;html=1;verticalAlign=top;strokeWidth=1;align=center;outlineConnect=0;dashed=0;outlineConnect=0;shape=mxgraph.aws3d.end_user;strokeColor=none;fillColor=#777777;aspect=fixed;" parent="1" vertex="1">
          <mxGeometry x="94.25" y="462.77" width="49" height="100.46" as="geometry" />
        </mxCell>
        <mxCell id="LBr9hsCO0pmCrkEfYy0i-4" value="&lt;div style=&quot;font-size: 8px;&quot;&gt;&lt;/div&gt;" style="verticalLabelPosition=middle;html=1;verticalAlign=top;strokeWidth=1;align=center;outlineConnect=0;dashed=0;outlineConnect=0;shape=mxgraph.aws3d.dataServer;strokeColor=#666666;aspect=fixed;fillColor=#f5f5f5;labelPosition=center;fontStyle=1;fontSize=33;fontColor=#333333;" parent="1" vertex="1">
          <mxGeometry x="234.25" y="460" width="123" height="106" as="geometry" />
        </mxCell>
        <mxCell id="ZxzjjC5gdZ-cjDVPfvcw-1" value="User" style="text;html=1;align=center;verticalAlign=middle;whiteSpace=wrap;rounded=0;" vertex="1" parent="1">
          <mxGeometry x="88.75" y="588.91" width="60" height="30" as="geometry" />
        </mxCell>
        <mxCell id="ZxzjjC5gdZ-cjDVPfvcw-2" value="Server" style="text;html=1;align=center;verticalAlign=middle;whiteSpace=wrap;rounded=0;" vertex="1" parent="1">
          <mxGeometry x="265.75" y="588.91" width="60" height="30" as="geometry" />
        </mxCell>
        <mxCell id="ZxzjjC5gdZ-cjDVPfvcw-4" value="" style="rounded=0;whiteSpace=wrap;html=1;fillColor=none;" vertex="1" parent="1">
          <mxGeometry x="40" y="680" width="560" height="330" as="geometry" />
        </mxCell>
        <mxCell id="ZxzjjC5gdZ-cjDVPfvcw-5" value="2" style="ellipse;whiteSpace=wrap;html=1;aspect=fixed;fontSize=27;fontStyle=1;spacing=2;spacingLeft=2;spacingTop=1;" vertex="1" parent="1">
          <mxGeometry x="50" y="695.1622715672759" width="47.103155911446066" height="47.103155911446066" as="geometry" />
        </mxCell>
        <mxCell id="ZxzjjC5gdZ-cjDVPfvcw-6" style="edgeStyle=orthogonalEdgeStyle;rounded=0;orthogonalLoop=1;jettySize=auto;html=1;" edge="1" parent="1" source="ZxzjjC5gdZ-cjDVPfvcw-7" target="ZxzjjC5gdZ-cjDVPfvcw-8">
          <mxGeometry relative="1" as="geometry" />
        </mxCell>
        <mxCell id="ZxzjjC5gdZ-cjDVPfvcw-7" value="" style="verticalLabelPosition=bottom;html=1;verticalAlign=top;strokeWidth=1;align=center;outlineConnect=0;dashed=0;outlineConnect=0;shape=mxgraph.aws3d.end_user;strokeColor=none;fillColor=#777777;aspect=fixed;" vertex="1" parent="1">
          <mxGeometry x="94.25" y="812.77" width="49" height="100.46" as="geometry" />
        </mxCell>
        <mxCell id="ZxzjjC5gdZ-cjDVPfvcw-20" style="edgeStyle=orthogonalEdgeStyle;rounded=0;orthogonalLoop=1;jettySize=auto;html=1;" edge="1" parent="1" source="ZxzjjC5gdZ-cjDVPfvcw-8" target="ZxzjjC5gdZ-cjDVPfvcw-11">
          <mxGeometry relative="1" as="geometry" />
        </mxCell>
        <mxCell id="ZxzjjC5gdZ-cjDVPfvcw-8" value="&lt;div style=&quot;font-size: 8px;&quot;&gt;&lt;/div&gt;" style="verticalLabelPosition=middle;html=1;verticalAlign=top;strokeWidth=1;align=center;outlineConnect=0;dashed=0;outlineConnect=0;shape=mxgraph.aws3d.dataServer;strokeColor=#666666;aspect=fixed;fillColor=#f5f5f5;labelPosition=center;fontStyle=1;fontSize=33;fontColor=#333333;" vertex="1" parent="1">
          <mxGeometry x="234.25" y="810" width="123" height="106" as="geometry" />
        </mxCell>
        <mxCell id="ZxzjjC5gdZ-cjDVPfvcw-9" value="User" style="text;html=1;align=center;verticalAlign=middle;whiteSpace=wrap;rounded=0;" vertex="1" parent="1">
          <mxGeometry x="88.75" y="938.91" width="60" height="30" as="geometry" />
        </mxCell>
        <mxCell id="ZxzjjC5gdZ-cjDVPfvcw-10" value="Server" style="text;html=1;align=center;verticalAlign=middle;whiteSpace=wrap;rounded=0;" vertex="1" parent="1">
          <mxGeometry x="265.75" y="938.91" width="60" height="30" as="geometry" />
        </mxCell>
        <mxCell id="ZxzjjC5gdZ-cjDVPfvcw-11" value="" style="verticalLabelPosition=bottom;html=1;verticalAlign=top;strokeWidth=1;align=center;outlineConnect=0;dashed=0;outlineConnect=0;shape=mxgraph.aws3d.rds;fillColor=#ECECEC;strokeColor=#5E5E5E;aspect=fixed;" vertex="1" parent="1">
          <mxGeometry x="450" y="796.5" width="123" height="133" as="geometry" />
        </mxCell>
        <mxCell id="ZxzjjC5gdZ-cjDVPfvcw-19" value="Database" style="text;html=1;align=center;verticalAlign=middle;whiteSpace=wrap;rounded=0;" vertex="1" parent="1">
          <mxGeometry x="481.5" y="938.91" width="60" height="30" as="geometry" />
        </mxCell>
        <mxCell id="ZxzjjC5gdZ-cjDVPfvcw-22" value="3" style="ellipse;whiteSpace=wrap;html=1;aspect=fixed;fontSize=27;fontStyle=1;spacing=2;spacingLeft=2;spacingTop=1;" vertex="1" parent="1">
          <mxGeometry x="50" y="1045.1622715672759" width="47.103155911446066" height="47.103155911446066" as="geometry" />
        </mxCell>
        <mxCell id="ZxzjjC5gdZ-cjDVPfvcw-32" style="edgeStyle=orthogonalEdgeStyle;rounded=0;orthogonalLoop=1;jettySize=auto;html=1;" edge="1" parent="1" source="ZxzjjC5gdZ-cjDVPfvcw-24" target="ZxzjjC5gdZ-cjDVPfvcw-31">
          <mxGeometry relative="1" as="geometry" />
        </mxCell>
        <mxCell id="ZxzjjC5gdZ-cjDVPfvcw-24" value="" style="verticalLabelPosition=bottom;html=1;verticalAlign=top;strokeWidth=1;align=center;outlineConnect=0;dashed=0;outlineConnect=0;shape=mxgraph.aws3d.end_user;strokeColor=none;fillColor=#777777;aspect=fixed;" vertex="1" parent="1">
          <mxGeometry x="94.25" y="1162.77" width="49" height="100.46" as="geometry" />
        </mxCell>
        <mxCell id="ZxzjjC5gdZ-cjDVPfvcw-25" style="edgeStyle=orthogonalEdgeStyle;rounded=0;orthogonalLoop=1;jettySize=auto;html=1;" edge="1" parent="1" source="ZxzjjC5gdZ-cjDVPfvcw-26" target="ZxzjjC5gdZ-cjDVPfvcw-29">
          <mxGeometry relative="1" as="geometry" />
        </mxCell>
        <mxCell id="ZxzjjC5gdZ-cjDVPfvcw-26" value="&lt;div style=&quot;font-size: 8px;&quot;&gt;&lt;/div&gt;" style="verticalLabelPosition=middle;html=1;verticalAlign=top;strokeWidth=1;align=center;outlineConnect=0;dashed=0;outlineConnect=0;shape=mxgraph.aws3d.dataServer;strokeColor=#666666;aspect=fixed;fillColor=#f5f5f5;labelPosition=center;fontStyle=1;fontSize=33;fontColor=#333333;" vertex="1" parent="1">
          <mxGeometry x="440" y="1160" width="123" height="106" as="geometry" />
        </mxCell>
        <mxCell id="ZxzjjC5gdZ-cjDVPfvcw-27" value="User" style="text;html=1;align=center;verticalAlign=middle;whiteSpace=wrap;rounded=0;" vertex="1" parent="1">
          <mxGeometry x="88.75" y="1288.9099999999999" width="60" height="30" as="geometry" />
        </mxCell>
        <mxCell id="ZxzjjC5gdZ-cjDVPfvcw-28" value="Servers" style="text;html=1;align=center;verticalAlign=middle;whiteSpace=wrap;rounded=0;" vertex="1" parent="1">
          <mxGeometry x="471.5" y="1288.9099999999999" width="60" height="30" as="geometry" />
        </mxCell>
        <mxCell id="ZxzjjC5gdZ-cjDVPfvcw-29" value="" style="verticalLabelPosition=bottom;html=1;verticalAlign=top;strokeWidth=1;align=center;outlineConnect=0;dashed=0;outlineConnect=0;shape=mxgraph.aws3d.rds;fillColor=#ECECEC;strokeColor=#5E5E5E;aspect=fixed;" vertex="1" parent="1">
          <mxGeometry x="660" y="1146.5" width="123" height="133" as="geometry" />
        </mxCell>
        <mxCell id="ZxzjjC5gdZ-cjDVPfvcw-30" value="Database" style="text;html=1;align=center;verticalAlign=middle;whiteSpace=wrap;rounded=0;" vertex="1" parent="1">
          <mxGeometry x="691.5" y="1288.9099999999999" width="60" height="30" as="geometry" />
        </mxCell>
        <mxCell id="ZxzjjC5gdZ-cjDVPfvcw-33" style="edgeStyle=orthogonalEdgeStyle;rounded=0;orthogonalLoop=1;jettySize=auto;html=1;" edge="1" parent="1" source="ZxzjjC5gdZ-cjDVPfvcw-31" target="ZxzjjC5gdZ-cjDVPfvcw-26">
          <mxGeometry relative="1" as="geometry" />
        </mxCell>
        <mxCell id="ZxzjjC5gdZ-cjDVPfvcw-31" value="" style="verticalLabelPosition=bottom;html=1;verticalAlign=top;strokeWidth=1;align=center;outlineConnect=0;dashed=0;outlineConnect=0;shape=mxgraph.aws3d.elasticLoadBalancing;fillColor=#ECECEC;strokeColor=#5E5E5E;aspect=fixed;" vertex="1" parent="1">
          <mxGeometry x="249.75" y="1168.91" width="92" height="88.17" as="geometry" />
        </mxCell>
        <mxCell id="ZxzjjC5gdZ-cjDVPfvcw-36" value="Load balancer" style="text;html=1;align=center;verticalAlign=middle;whiteSpace=wrap;rounded=0;" vertex="1" parent="1">
          <mxGeometry x="260" y="1288.9099999999999" width="94.25" height="30" as="geometry" />
        </mxCell>
        <mxCell id="ZxzjjC5gdZ-cjDVPfvcw-54" value="&lt;div style=&quot;font-size: 8px;&quot;&gt;&lt;/div&gt;" style="verticalLabelPosition=middle;html=1;verticalAlign=top;strokeWidth=1;align=center;outlineConnect=0;dashed=0;outlineConnect=0;shape=mxgraph.aws3d.dataServer;strokeColor=#666666;aspect=fixed;fillColor=#f5f5f5;labelPosition=center;fontStyle=1;fontSize=33;fontColor=#333333;" vertex="1" parent="1">
          <mxGeometry x="640" y="1430.5" width="123" height="106" as="geometry" />
        </mxCell>
        <mxCell id="ZxzjjC5gdZ-cjDVPfvcw-55" value="&lt;div style=&quot;font-size: 8px;&quot;&gt;&lt;/div&gt;" style="verticalLabelPosition=middle;html=1;verticalAlign=top;strokeWidth=1;align=center;outlineConnect=0;dashed=0;outlineConnect=0;shape=mxgraph.aws3d.dataServer;strokeColor=#666666;aspect=fixed;fillColor=#f5f5f5;labelPosition=center;fontStyle=1;fontSize=33;fontColor=#333333;" vertex="1" parent="1">
          <mxGeometry x="620" y="1470" width="123" height="106" as="geometry" />
        </mxCell>
        <mxCell id="ZxzjjC5gdZ-cjDVPfvcw-56" value="4" style="ellipse;whiteSpace=wrap;html=1;aspect=fixed;fontSize=27;fontStyle=1;spacing=2;spacingLeft=2;spacingTop=1;" vertex="1" parent="1">
          <mxGeometry x="50" y="1395.1622715672759" width="47.103155911446066" height="47.103155911446066" as="geometry" />
        </mxCell>
        <mxCell id="ZxzjjC5gdZ-cjDVPfvcw-69" style="edgeStyle=orthogonalEdgeStyle;rounded=0;orthogonalLoop=1;jettySize=auto;html=1;" edge="1" parent="1" source="ZxzjjC5gdZ-cjDVPfvcw-58" target="ZxzjjC5gdZ-cjDVPfvcw-68">
          <mxGeometry relative="1" as="geometry" />
        </mxCell>
        <mxCell id="ZxzjjC5gdZ-cjDVPfvcw-58" value="" style="verticalLabelPosition=bottom;html=1;verticalAlign=top;strokeWidth=1;align=center;outlineConnect=0;dashed=0;outlineConnect=0;shape=mxgraph.aws3d.end_user;strokeColor=none;fillColor=#777777;aspect=fixed;" vertex="1" parent="1">
          <mxGeometry x="94.25" y="1512.77" width="49" height="100.46" as="geometry" />
        </mxCell>
        <mxCell id="ZxzjjC5gdZ-cjDVPfvcw-76" style="edgeStyle=orthogonalEdgeStyle;rounded=0;orthogonalLoop=1;jettySize=auto;html=1;" edge="1" parent="1" source="ZxzjjC5gdZ-cjDVPfvcw-60" target="ZxzjjC5gdZ-cjDVPfvcw-73">
          <mxGeometry relative="1" as="geometry" />
        </mxCell>
        <mxCell id="ZxzjjC5gdZ-cjDVPfvcw-60" value="&lt;div style=&quot;font-size: 8px;&quot;&gt;&lt;/div&gt;" style="verticalLabelPosition=middle;html=1;verticalAlign=top;strokeWidth=1;align=center;outlineConnect=0;dashed=0;outlineConnect=0;shape=mxgraph.aws3d.dataServer;strokeColor=#666666;aspect=fixed;fillColor=#f5f5f5;labelPosition=center;fontStyle=1;fontSize=33;fontColor=#333333;" vertex="1" parent="1">
          <mxGeometry x="600" y="1511" width="123" height="106" as="geometry" />
        </mxCell>
        <mxCell id="ZxzjjC5gdZ-cjDVPfvcw-61" value="User" style="text;html=1;align=center;verticalAlign=middle;whiteSpace=wrap;rounded=0;" vertex="1" parent="1">
          <mxGeometry x="88.75" y="1638.9099999999999" width="60" height="30" as="geometry" />
        </mxCell>
        <mxCell id="ZxzjjC5gdZ-cjDVPfvcw-62" value="Servers" style="text;html=1;align=center;verticalAlign=middle;whiteSpace=wrap;rounded=0;" vertex="1" parent="1">
          <mxGeometry x="631.5" y="1638.9099999999999" width="60" height="30" as="geometry" />
        </mxCell>
        <mxCell id="ZxzjjC5gdZ-cjDVPfvcw-63" value="" style="verticalLabelPosition=bottom;html=1;verticalAlign=top;strokeWidth=1;align=center;outlineConnect=0;dashed=0;outlineConnect=0;shape=mxgraph.aws3d.rds;fillColor=#ECECEC;strokeColor=#5E5E5E;aspect=fixed;" vertex="1" parent="1">
          <mxGeometry x="1010" y="1497.5" width="123" height="133" as="geometry" />
        </mxCell>
        <mxCell id="ZxzjjC5gdZ-cjDVPfvcw-64" value="Database" style="text;html=1;align=center;verticalAlign=middle;whiteSpace=wrap;rounded=0;" vertex="1" parent="1">
          <mxGeometry x="1041.5" y="1638.9099999999999" width="60" height="30" as="geometry" />
        </mxCell>
        <mxCell id="ZxzjjC5gdZ-cjDVPfvcw-65" style="edgeStyle=orthogonalEdgeStyle;rounded=0;orthogonalLoop=1;jettySize=auto;html=1;" edge="1" parent="1" source="ZxzjjC5gdZ-cjDVPfvcw-66" target="ZxzjjC5gdZ-cjDVPfvcw-60">
          <mxGeometry relative="1" as="geometry" />
        </mxCell>
        <mxCell id="ZxzjjC5gdZ-cjDVPfvcw-66" value="" style="verticalLabelPosition=bottom;html=1;verticalAlign=top;strokeWidth=1;align=center;outlineConnect=0;dashed=0;outlineConnect=0;shape=mxgraph.aws3d.elasticLoadBalancing;fillColor=#ECECEC;strokeColor=#5E5E5E;aspect=fixed;" vertex="1" parent="1">
          <mxGeometry x="409.75" y="1519.91" width="92" height="88.17" as="geometry" />
        </mxCell>
        <mxCell id="ZxzjjC5gdZ-cjDVPfvcw-67" value="Load balancer" style="text;html=1;align=center;verticalAlign=middle;whiteSpace=wrap;rounded=0;" vertex="1" parent="1">
          <mxGeometry x="420" y="1638.9099999999999" width="94.25" height="30" as="geometry" />
        </mxCell>
        <mxCell id="ZxzjjC5gdZ-cjDVPfvcw-70" style="edgeStyle=orthogonalEdgeStyle;rounded=0;orthogonalLoop=1;jettySize=auto;html=1;" edge="1" parent="1" source="ZxzjjC5gdZ-cjDVPfvcw-68" target="ZxzjjC5gdZ-cjDVPfvcw-66">
          <mxGeometry relative="1" as="geometry" />
        </mxCell>
        <mxCell id="ZxzjjC5gdZ-cjDVPfvcw-68" value="" style="verticalLabelPosition=bottom;html=1;verticalAlign=top;strokeWidth=1;align=center;outlineConnect=0;dashed=0;outlineConnect=0;shape=mxgraph.aws3d.cloudfront;fillColor=#ECECEC;strokeColor=#5E5E5E;aspect=fixed;" vertex="1" parent="1">
          <mxGeometry x="260" y="1500.5" width="77.03" height="126" as="geometry" />
        </mxCell>
        <mxCell id="ZxzjjC5gdZ-cjDVPfvcw-71" value="CDN" style="text;html=1;align=center;verticalAlign=middle;whiteSpace=wrap;rounded=0;" vertex="1" parent="1">
          <mxGeometry x="251.38999999999987" y="1638.9099999999999" width="94.25" height="30" as="geometry" />
        </mxCell>
        <mxCell id="ZxzjjC5gdZ-cjDVPfvcw-74" value="Cache" style="text;html=1;align=center;verticalAlign=middle;whiteSpace=wrap;rounded=0;" vertex="1" parent="1">
          <mxGeometry x="851.4899999999998" y="1638.9099999999999" width="60" height="30" as="geometry" />
        </mxCell>
        <mxCell id="ZxzjjC5gdZ-cjDVPfvcw-77" style="edgeStyle=orthogonalEdgeStyle;rounded=0;orthogonalLoop=1;jettySize=auto;html=1;" edge="1" parent="1" source="ZxzjjC5gdZ-cjDVPfvcw-73" target="ZxzjjC5gdZ-cjDVPfvcw-63">
          <mxGeometry relative="1" as="geometry" />
        </mxCell>
        <mxCell id="ZxzjjC5gdZ-cjDVPfvcw-73" value="" style="verticalLabelPosition=bottom;html=1;verticalAlign=top;strokeWidth=1;align=center;outlineConnect=0;dashed=0;outlineConnect=0;shape=mxgraph.aws3d.dynamoDb;fillColor=#ECECEC;strokeColor=#5E5E5E;aspect=fixed;" vertex="1" parent="1">
          <mxGeometry x="830.9000000000001" y="1505.5" width="101.19" height="117.08" as="geometry" />
        </mxCell>
        <mxCell id="ZxzjjC5gdZ-cjDVPfvcw-89" value="" style="group;spacingLeft=6;spacingBottom=0;" vertex="1" connectable="0" parent="1">
          <mxGeometry x="203" y="1740" width="997" height="370" as="geometry" />
        </mxCell>
        <mxCell id="ZxzjjC5gdZ-cjDVPfvcw-112" value="&lt;b&gt;stage&lt;/b&gt;" style="rounded=0;whiteSpace=wrap;html=1;dashed=1;fillColor=#f5f5f5;fontColor=#333333;strokeColor=#666666;align=left;verticalAlign=bottom;spacingLeft=4;spacingBottom=2;" vertex="1" parent="ZxzjjC5gdZ-cjDVPfvcw-89">
          <mxGeometry x="67" y="44" width="930" height="290" as="geometry" />
        </mxCell>
        <mxCell id="ZxzjjC5gdZ-cjDVPfvcw-90" value="&lt;b&gt;prod&lt;/b&gt;" style="rounded=0;whiteSpace=wrap;html=1;dashed=1;fillColor=#f5f5f5;fontColor=#333333;strokeColor=#666666;align=left;verticalAlign=bottom;spacingLeft=6;spacingBottom=2;" vertex="1" parent="ZxzjjC5gdZ-cjDVPfvcw-89">
          <mxGeometry x="30" y="17.73" width="930" height="290" as="geometry" />
        </mxCell>
        <mxCell id="ZxzjjC5gdZ-cjDVPfvcw-91" value="" style="outlineConnect=0;dashed=0;verticalLabelPosition=bottom;verticalAlign=top;align=center;html=1;shape=mxgraph.aws3.virtual_private_cloud;fillColor=#CCCCCC;gradientColor=none;" vertex="1" parent="ZxzjjC5gdZ-cjDVPfvcw-89">
          <mxGeometry width="79.5" height="54" as="geometry" />
        </mxCell>
        <mxCell id="ZxzjjC5gdZ-cjDVPfvcw-92" value="&lt;div style=&quot;font-size: 8px;&quot;&gt;&lt;/div&gt;" style="verticalLabelPosition=middle;html=1;verticalAlign=top;strokeWidth=1;align=center;outlineConnect=0;dashed=0;outlineConnect=0;shape=mxgraph.aws3d.dataServer;strokeColor=#666666;aspect=fixed;fillColor=#f5f5f5;labelPosition=center;fontStyle=1;fontSize=33;fontColor=#333333;" vertex="1" parent="1">
          <mxGeometry x="640" y="1780.5" width="123" height="106" as="geometry" />
        </mxCell>
        <mxCell id="ZxzjjC5gdZ-cjDVPfvcw-93" value="&lt;div style=&quot;font-size: 8px;&quot;&gt;&lt;/div&gt;" style="verticalLabelPosition=middle;html=1;verticalAlign=top;strokeWidth=1;align=center;outlineConnect=0;dashed=0;outlineConnect=0;shape=mxgraph.aws3d.dataServer;strokeColor=#666666;aspect=fixed;fillColor=#f5f5f5;labelPosition=center;fontStyle=1;fontSize=33;fontColor=#333333;" vertex="1" parent="1">
          <mxGeometry x="620" y="1820" width="123" height="106" as="geometry" />
        </mxCell>
        <mxCell id="ZxzjjC5gdZ-cjDVPfvcw-94" value="5" style="ellipse;whiteSpace=wrap;html=1;aspect=fixed;fontSize=27;fontStyle=1;spacing=2;spacingLeft=2;spacingTop=1;" vertex="1" parent="1">
          <mxGeometry x="50" y="1745.1622715672759" width="47.103155911446066" height="47.103155911446066" as="geometry" />
        </mxCell>
        <mxCell id="ZxzjjC5gdZ-cjDVPfvcw-95" style="edgeStyle=orthogonalEdgeStyle;rounded=0;orthogonalLoop=1;jettySize=auto;html=1;" edge="1" parent="1" source="ZxzjjC5gdZ-cjDVPfvcw-96" target="ZxzjjC5gdZ-cjDVPfvcw-107">
          <mxGeometry relative="1" as="geometry" />
        </mxCell>
        <mxCell id="ZxzjjC5gdZ-cjDVPfvcw-96" value="" style="verticalLabelPosition=bottom;html=1;verticalAlign=top;strokeWidth=1;align=center;outlineConnect=0;dashed=0;outlineConnect=0;shape=mxgraph.aws3d.end_user;strokeColor=none;fillColor=#777777;aspect=fixed;" vertex="1" parent="1">
          <mxGeometry x="94.25" y="1862.77" width="49" height="100.46" as="geometry" />
        </mxCell>
        <mxCell id="ZxzjjC5gdZ-cjDVPfvcw-97" style="edgeStyle=orthogonalEdgeStyle;rounded=0;orthogonalLoop=1;jettySize=auto;html=1;" edge="1" parent="1" source="ZxzjjC5gdZ-cjDVPfvcw-98" target="ZxzjjC5gdZ-cjDVPfvcw-111">
          <mxGeometry relative="1" as="geometry" />
        </mxCell>
        <mxCell id="ZxzjjC5gdZ-cjDVPfvcw-98" value="&lt;div style=&quot;font-size: 8px;&quot;&gt;&lt;/div&gt;" style="verticalLabelPosition=middle;html=1;verticalAlign=top;strokeWidth=1;align=center;outlineConnect=0;dashed=0;outlineConnect=0;shape=mxgraph.aws3d.dataServer;strokeColor=#666666;aspect=fixed;fillColor=#f5f5f5;labelPosition=center;fontStyle=1;fontSize=33;fontColor=#333333;" vertex="1" parent="1">
          <mxGeometry x="600" y="1861" width="123" height="106" as="geometry" />
        </mxCell>
        <mxCell id="ZxzjjC5gdZ-cjDVPfvcw-99" value="User" style="text;html=1;align=center;verticalAlign=middle;whiteSpace=wrap;rounded=0;" vertex="1" parent="1">
          <mxGeometry x="88.75" y="1988.9099999999999" width="60" height="30" as="geometry" />
        </mxCell>
        <mxCell id="ZxzjjC5gdZ-cjDVPfvcw-100" value="Servers" style="text;html=1;align=center;verticalAlign=middle;whiteSpace=wrap;rounded=0;" vertex="1" parent="1">
          <mxGeometry x="631.5" y="1988.9099999999999" width="60" height="30" as="geometry" />
        </mxCell>
        <mxCell id="ZxzjjC5gdZ-cjDVPfvcw-101" value="" style="verticalLabelPosition=bottom;html=1;verticalAlign=top;strokeWidth=1;align=center;outlineConnect=0;dashed=0;outlineConnect=0;shape=mxgraph.aws3d.rds;fillColor=#ECECEC;strokeColor=#5E5E5E;aspect=fixed;" vertex="1" parent="1">
          <mxGeometry x="1010" y="1847.5" width="123" height="133" as="geometry" />
        </mxCell>
        <mxCell id="ZxzjjC5gdZ-cjDVPfvcw-102" value="Database" style="text;html=1;align=center;verticalAlign=middle;whiteSpace=wrap;rounded=0;" vertex="1" parent="1">
          <mxGeometry x="1041.5" y="1988.9099999999999" width="60" height="30" as="geometry" />
        </mxCell>
        <mxCell id="ZxzjjC5gdZ-cjDVPfvcw-103" style="edgeStyle=orthogonalEdgeStyle;rounded=0;orthogonalLoop=1;jettySize=auto;html=1;" edge="1" parent="1" source="ZxzjjC5gdZ-cjDVPfvcw-104" target="ZxzjjC5gdZ-cjDVPfvcw-98">
          <mxGeometry relative="1" as="geometry" />
        </mxCell>
        <mxCell id="ZxzjjC5gdZ-cjDVPfvcw-104" value="" style="verticalLabelPosition=bottom;html=1;verticalAlign=top;strokeWidth=1;align=center;outlineConnect=0;dashed=0;outlineConnect=0;shape=mxgraph.aws3d.elasticLoadBalancing;fillColor=#ECECEC;strokeColor=#5E5E5E;aspect=fixed;" vertex="1" parent="1">
          <mxGeometry x="409.75" y="1869.91" width="92" height="88.17" as="geometry" />
        </mxCell>
        <mxCell id="ZxzjjC5gdZ-cjDVPfvcw-105" value="Load balancer" style="text;html=1;align=center;verticalAlign=middle;whiteSpace=wrap;rounded=0;" vertex="1" parent="1">
          <mxGeometry x="420" y="1988.9099999999999" width="94.25" height="30" as="geometry" />
        </mxCell>
        <mxCell id="ZxzjjC5gdZ-cjDVPfvcw-106" style="edgeStyle=orthogonalEdgeStyle;rounded=0;orthogonalLoop=1;jettySize=auto;html=1;" edge="1" parent="1" source="ZxzjjC5gdZ-cjDVPfvcw-107" target="ZxzjjC5gdZ-cjDVPfvcw-104">
          <mxGeometry relative="1" as="geometry" />
        </mxCell>
        <mxCell id="ZxzjjC5gdZ-cjDVPfvcw-107" value="" style="verticalLabelPosition=bottom;html=1;verticalAlign=top;strokeWidth=1;align=center;outlineConnect=0;dashed=0;outlineConnect=0;shape=mxgraph.aws3d.cloudfront;fillColor=#ECECEC;strokeColor=#5E5E5E;aspect=fixed;" vertex="1" parent="1">
          <mxGeometry x="260" y="1850.5" width="77.03" height="126" as="geometry" />
        </mxCell>
        <mxCell id="ZxzjjC5gdZ-cjDVPfvcw-108" value="CDN" style="text;html=1;align=center;verticalAlign=middle;whiteSpace=wrap;rounded=0;" vertex="1" parent="1">
          <mxGeometry x="251.38999999999987" y="1988.9099999999999" width="94.25" height="30" as="geometry" />
        </mxCell>
        <mxCell id="ZxzjjC5gdZ-cjDVPfvcw-109" value="Cache" style="text;html=1;align=center;verticalAlign=middle;whiteSpace=wrap;rounded=0;" vertex="1" parent="1">
          <mxGeometry x="851.4899999999998" y="1988.9099999999999" width="60" height="30" as="geometry" />
        </mxCell>
        <mxCell id="ZxzjjC5gdZ-cjDVPfvcw-110" style="edgeStyle=orthogonalEdgeStyle;rounded=0;orthogonalLoop=1;jettySize=auto;html=1;" edge="1" parent="1" source="ZxzjjC5gdZ-cjDVPfvcw-111" target="ZxzjjC5gdZ-cjDVPfvcw-101">
          <mxGeometry relative="1" as="geometry" />
        </mxCell>
        <mxCell id="ZxzjjC5gdZ-cjDVPfvcw-111" value="" style="verticalLabelPosition=bottom;html=1;verticalAlign=top;strokeWidth=1;align=center;outlineConnect=0;dashed=0;outlineConnect=0;shape=mxgraph.aws3d.dynamoDb;fillColor=#ECECEC;strokeColor=#5E5E5E;aspect=fixed;" vertex="1" parent="1">
          <mxGeometry x="830.9000000000001" y="1855.5" width="101.19" height="117.08" as="geometry" />
        </mxCell>
        <mxCell id="ZxzjjC5gdZ-cjDVPfvcw-120" value="&lt;div style=&quot;font-size: 8px;&quot;&gt;&lt;/div&gt;" style="verticalLabelPosition=middle;html=1;verticalAlign=top;strokeWidth=1;align=center;outlineConnect=0;dashed=0;outlineConnect=0;shape=mxgraph.aws3d.dataServer;strokeColor=#666666;aspect=fixed;fillColor=#f5f5f5;labelPosition=center;fontStyle=1;fontSize=33;fontColor=#333333;" vertex="1" parent="1">
          <mxGeometry x="640" y="2200.5" width="123" height="106" as="geometry" />
        </mxCell>
        <mxCell id="ZxzjjC5gdZ-cjDVPfvcw-121" value="&lt;div style=&quot;font-size: 8px;&quot;&gt;&lt;/div&gt;" style="verticalLabelPosition=middle;html=1;verticalAlign=top;strokeWidth=1;align=center;outlineConnect=0;dashed=0;outlineConnect=0;shape=mxgraph.aws3d.dataServer;strokeColor=#666666;aspect=fixed;fillColor=#f5f5f5;labelPosition=center;fontStyle=1;fontSize=33;fontColor=#333333;" vertex="1" parent="1">
          <mxGeometry x="620" y="2240" width="123" height="106" as="geometry" />
        </mxCell>
        <mxCell id="ZxzjjC5gdZ-cjDVPfvcw-122" value="6" style="ellipse;whiteSpace=wrap;html=1;aspect=fixed;fontSize=27;fontStyle=1;spacing=2;spacingLeft=2;spacingTop=1;" vertex="1" parent="1">
          <mxGeometry x="50" y="2165.1622715672756" width="47.103155911446066" height="47.103155911446066" as="geometry" />
        </mxCell>
        <mxCell id="ZxzjjC5gdZ-cjDVPfvcw-123" style="edgeStyle=orthogonalEdgeStyle;rounded=0;orthogonalLoop=1;jettySize=auto;html=1;" edge="1" parent="1" source="ZxzjjC5gdZ-cjDVPfvcw-124" target="ZxzjjC5gdZ-cjDVPfvcw-135">
          <mxGeometry relative="1" as="geometry" />
        </mxCell>
        <mxCell id="ZxzjjC5gdZ-cjDVPfvcw-124" value="" style="verticalLabelPosition=bottom;html=1;verticalAlign=top;strokeWidth=1;align=center;outlineConnect=0;dashed=0;outlineConnect=0;shape=mxgraph.aws3d.end_user;strokeColor=none;fillColor=#777777;aspect=fixed;" vertex="1" parent="1">
          <mxGeometry x="94.25" y="2282.77" width="49" height="100.46" as="geometry" />
        </mxCell>
        <mxCell id="ZxzjjC5gdZ-cjDVPfvcw-155" style="edgeStyle=orthogonalEdgeStyle;rounded=0;orthogonalLoop=1;jettySize=auto;html=1;" edge="1" parent="1" source="ZxzjjC5gdZ-cjDVPfvcw-126" target="ZxzjjC5gdZ-cjDVPfvcw-145">
          <mxGeometry relative="1" as="geometry" />
        </mxCell>
        <mxCell id="ZxzjjC5gdZ-cjDVPfvcw-126" value="&lt;div style=&quot;font-size: 8px;&quot;&gt;&lt;/div&gt;" style="verticalLabelPosition=middle;html=1;verticalAlign=top;strokeWidth=1;align=center;outlineConnect=0;dashed=0;outlineConnect=0;shape=mxgraph.aws3d.dataServer;strokeColor=#666666;aspect=fixed;fillColor=#f5f5f5;labelPosition=center;fontStyle=1;fontSize=33;fontColor=#333333;" vertex="1" parent="1">
          <mxGeometry x="600" y="2281" width="123" height="106" as="geometry" />
        </mxCell>
        <mxCell id="ZxzjjC5gdZ-cjDVPfvcw-127" value="User" style="text;html=1;align=center;verticalAlign=middle;whiteSpace=wrap;rounded=0;" vertex="1" parent="1">
          <mxGeometry x="88.75" y="2408.91" width="60" height="30" as="geometry" />
        </mxCell>
        <mxCell id="ZxzjjC5gdZ-cjDVPfvcw-128" value="Microservices" style="text;html=1;align=center;verticalAlign=middle;whiteSpace=wrap;rounded=0;" vertex="1" parent="1">
          <mxGeometry x="742.25" y="2649.2" width="95.5" height="30" as="geometry" />
        </mxCell>
        <mxCell id="ZxzjjC5gdZ-cjDVPfvcw-129" value="" style="verticalLabelPosition=bottom;html=1;verticalAlign=top;strokeWidth=1;align=center;outlineConnect=0;dashed=0;outlineConnect=0;shape=mxgraph.aws3d.rds;fillColor=#ECECEC;strokeColor=#5E5E5E;aspect=fixed;" vertex="1" parent="1">
          <mxGeometry x="1260" y="2267.5" width="123" height="133" as="geometry" />
        </mxCell>
        <mxCell id="ZxzjjC5gdZ-cjDVPfvcw-130" value="Database" style="text;html=1;align=center;verticalAlign=middle;whiteSpace=wrap;rounded=0;" vertex="1" parent="1">
          <mxGeometry x="1291.5" y="2408.91" width="60" height="30" as="geometry" />
        </mxCell>
        <mxCell id="ZxzjjC5gdZ-cjDVPfvcw-131" style="edgeStyle=orthogonalEdgeStyle;rounded=0;orthogonalLoop=1;jettySize=auto;html=1;" edge="1" parent="1" source="ZxzjjC5gdZ-cjDVPfvcw-132" target="ZxzjjC5gdZ-cjDVPfvcw-126">
          <mxGeometry relative="1" as="geometry" />
        </mxCell>
        <mxCell id="ZxzjjC5gdZ-cjDVPfvcw-161" style="edgeStyle=orthogonalEdgeStyle;rounded=0;orthogonalLoop=1;jettySize=auto;html=1;" edge="1" parent="1" source="ZxzjjC5gdZ-cjDVPfvcw-132" target="ZxzjjC5gdZ-cjDVPfvcw-140">
          <mxGeometry relative="1" as="geometry">
            <Array as="points">
              <mxPoint x="560" y="2334" />
              <mxPoint x="560" y="2483" />
            </Array>
          </mxGeometry>
        </mxCell>
        <mxCell id="ZxzjjC5gdZ-cjDVPfvcw-132" value="" style="verticalLabelPosition=bottom;html=1;verticalAlign=top;strokeWidth=1;align=center;outlineConnect=0;dashed=0;outlineConnect=0;shape=mxgraph.aws3d.elasticLoadBalancing;fillColor=#ECECEC;strokeColor=#5E5E5E;aspect=fixed;" vertex="1" parent="1">
          <mxGeometry x="409.75" y="2289.91" width="92" height="88.17" as="geometry" />
        </mxCell>
        <mxCell id="ZxzjjC5gdZ-cjDVPfvcw-133" value="Load balancer" style="text;html=1;align=center;verticalAlign=middle;whiteSpace=wrap;rounded=0;" vertex="1" parent="1">
          <mxGeometry x="420" y="2408.91" width="94.25" height="30" as="geometry" />
        </mxCell>
        <mxCell id="ZxzjjC5gdZ-cjDVPfvcw-134" style="edgeStyle=orthogonalEdgeStyle;rounded=0;orthogonalLoop=1;jettySize=auto;html=1;" edge="1" parent="1" source="ZxzjjC5gdZ-cjDVPfvcw-135" target="ZxzjjC5gdZ-cjDVPfvcw-132">
          <mxGeometry relative="1" as="geometry" />
        </mxCell>
        <mxCell id="ZxzjjC5gdZ-cjDVPfvcw-135" value="" style="verticalLabelPosition=bottom;html=1;verticalAlign=top;strokeWidth=1;align=center;outlineConnect=0;dashed=0;outlineConnect=0;shape=mxgraph.aws3d.cloudfront;fillColor=#ECECEC;strokeColor=#5E5E5E;aspect=fixed;" vertex="1" parent="1">
          <mxGeometry x="260" y="2270.5" width="77.03" height="126" as="geometry" />
        </mxCell>
        <mxCell id="ZxzjjC5gdZ-cjDVPfvcw-136" value="CDN" style="text;html=1;align=center;verticalAlign=middle;whiteSpace=wrap;rounded=0;" vertex="1" parent="1">
          <mxGeometry x="251.38999999999987" y="2408.91" width="94.25" height="30" as="geometry" />
        </mxCell>
        <mxCell id="ZxzjjC5gdZ-cjDVPfvcw-137" value="Cache" style="text;html=1;align=center;verticalAlign=middle;whiteSpace=wrap;rounded=0;" vertex="1" parent="1">
          <mxGeometry x="1101.4899999999998" y="2408.91" width="60" height="30" as="geometry" />
        </mxCell>
        <mxCell id="ZxzjjC5gdZ-cjDVPfvcw-138" style="edgeStyle=orthogonalEdgeStyle;rounded=0;orthogonalLoop=1;jettySize=auto;html=1;" edge="1" parent="1" source="ZxzjjC5gdZ-cjDVPfvcw-139" target="ZxzjjC5gdZ-cjDVPfvcw-129">
          <mxGeometry relative="1" as="geometry" />
        </mxCell>
        <mxCell id="ZxzjjC5gdZ-cjDVPfvcw-139" value="" style="verticalLabelPosition=bottom;html=1;verticalAlign=top;strokeWidth=1;align=center;outlineConnect=0;dashed=0;outlineConnect=0;shape=mxgraph.aws3d.dynamoDb;fillColor=#ECECEC;strokeColor=#5E5E5E;aspect=fixed;" vertex="1" parent="1">
          <mxGeometry x="1080.9" y="2275.5" width="101.19" height="117.08" as="geometry" />
        </mxCell>
        <mxCell id="ZxzjjC5gdZ-cjDVPfvcw-119" value="" style="outlineConnect=0;dashed=0;verticalLabelPosition=bottom;verticalAlign=top;align=center;html=1;shape=mxgraph.aws3.virtual_private_cloud;fillColor=#CCCCCC;gradientColor=none;" vertex="1" parent="1">
          <mxGeometry x="203" y="2160" width="79.5" height="54" as="geometry" />
        </mxCell>
        <mxCell id="ZxzjjC5gdZ-cjDVPfvcw-162" style="edgeStyle=orthogonalEdgeStyle;rounded=0;orthogonalLoop=1;jettySize=auto;html=1;" edge="1" parent="1" source="ZxzjjC5gdZ-cjDVPfvcw-140" target="ZxzjjC5gdZ-cjDVPfvcw-146">
          <mxGeometry relative="1" as="geometry" />
        </mxCell>
        <mxCell id="ZxzjjC5gdZ-cjDVPfvcw-140" value="&lt;div style=&quot;font-size: 8px;&quot;&gt;&lt;/div&gt;" style="verticalLabelPosition=middle;html=1;verticalAlign=top;strokeWidth=1;align=center;outlineConnect=0;dashed=0;outlineConnect=0;shape=mxgraph.aws3d.dataServer;strokeColor=#666666;aspect=fixed;fillColor=#f5f5f5;labelPosition=center;fontStyle=1;fontSize=33;fontColor=#333333;" vertex="1" parent="1">
          <mxGeometry x="641.5" y="2430" width="123" height="106" as="geometry" />
        </mxCell>
        <mxCell id="ZxzjjC5gdZ-cjDVPfvcw-141" value="&lt;div style=&quot;font-size: 8px;&quot;&gt;&lt;/div&gt;" style="verticalLabelPosition=middle;html=1;verticalAlign=top;strokeWidth=1;align=center;outlineConnect=0;dashed=0;outlineConnect=0;shape=mxgraph.aws3d.dataServer;strokeColor=#666666;aspect=fixed;fillColor=#f5f5f5;labelPosition=center;fontStyle=1;fontSize=33;fontColor=#333333;" vertex="1" parent="1">
          <mxGeometry x="621.5" y="2469.5" width="123" height="106" as="geometry" />
        </mxCell>
        <mxCell id="ZxzjjC5gdZ-cjDVPfvcw-143" value="&lt;div style=&quot;font-size: 8px;&quot;&gt;&lt;/div&gt;" style="verticalLabelPosition=middle;html=1;verticalAlign=top;strokeWidth=1;align=center;outlineConnect=0;dashed=0;outlineConnect=0;shape=mxgraph.aws3d.dataServer;strokeColor=#666666;aspect=fixed;fillColor=#f5f5f5;labelPosition=center;fontStyle=1;fontSize=33;fontColor=#333333;" vertex="1" parent="1">
          <mxGeometry x="880" y="2201" width="123" height="106" as="geometry" />
        </mxCell>
        <mxCell id="ZxzjjC5gdZ-cjDVPfvcw-144" value="&lt;div style=&quot;font-size: 8px;&quot;&gt;&lt;/div&gt;" style="verticalLabelPosition=middle;html=1;verticalAlign=top;strokeWidth=1;align=center;outlineConnect=0;dashed=0;outlineConnect=0;shape=mxgraph.aws3d.dataServer;strokeColor=#666666;aspect=fixed;fillColor=#f5f5f5;labelPosition=center;fontStyle=1;fontSize=33;fontColor=#333333;" vertex="1" parent="1">
          <mxGeometry x="860" y="2240.5" width="123" height="106" as="geometry" />
        </mxCell>
        <mxCell id="ZxzjjC5gdZ-cjDVPfvcw-164" style="edgeStyle=orthogonalEdgeStyle;rounded=0;orthogonalLoop=1;jettySize=auto;html=1;" edge="1" parent="1" source="ZxzjjC5gdZ-cjDVPfvcw-145" target="ZxzjjC5gdZ-cjDVPfvcw-146">
          <mxGeometry relative="1" as="geometry" />
        </mxCell>
        <mxCell id="ZxzjjC5gdZ-cjDVPfvcw-163" style="edgeStyle=orthogonalEdgeStyle;rounded=0;orthogonalLoop=1;jettySize=auto;html=1;" edge="1" parent="1" source="ZxzjjC5gdZ-cjDVPfvcw-146" target="ZxzjjC5gdZ-cjDVPfvcw-145">
          <mxGeometry relative="1" as="geometry" />
        </mxCell>
        <mxCell id="ZxzjjC5gdZ-cjDVPfvcw-146" value="&lt;div style=&quot;font-size: 8px;&quot;&gt;&lt;/div&gt;" style="verticalLabelPosition=middle;html=1;verticalAlign=top;strokeWidth=1;align=center;outlineConnect=0;dashed=0;outlineConnect=0;shape=mxgraph.aws3d.dataServer;strokeColor=#666666;aspect=fixed;fillColor=#f5f5f5;labelPosition=center;fontStyle=1;fontSize=33;fontColor=#333333;" vertex="1" parent="1">
          <mxGeometry x="839.99" y="2429.25" width="123" height="106" as="geometry" />
        </mxCell>
        <mxCell id="ZxzjjC5gdZ-cjDVPfvcw-147" value="&lt;div style=&quot;font-size: 8px;&quot;&gt;&lt;/div&gt;" style="verticalLabelPosition=middle;html=1;verticalAlign=top;strokeWidth=1;align=center;outlineConnect=0;dashed=0;outlineConnect=0;shape=mxgraph.aws3d.dataServer;strokeColor=#666666;aspect=fixed;fillColor=#f5f5f5;labelPosition=center;fontStyle=1;fontSize=33;fontColor=#333333;" vertex="1" parent="1">
          <mxGeometry x="829.99" y="2468.75" width="123" height="106" as="geometry" />
        </mxCell>
        <mxCell id="ZxzjjC5gdZ-cjDVPfvcw-148" value="&lt;div style=&quot;font-size: 8px;&quot;&gt;&lt;/div&gt;" style="verticalLabelPosition=middle;html=1;verticalAlign=top;strokeWidth=1;align=center;outlineConnect=0;dashed=0;outlineConnect=0;shape=mxgraph.aws3d.dataServer;strokeColor=#666666;aspect=fixed;fillColor=#f5f5f5;labelPosition=center;fontStyle=1;fontSize=33;fontColor=#333333;" vertex="1" parent="1">
          <mxGeometry x="819.99" y="2509.75" width="123" height="106" as="geometry" />
        </mxCell>
        <mxCell id="ZxzjjC5gdZ-cjDVPfvcw-149" value="" style="verticalLabelPosition=bottom;html=1;verticalAlign=top;strokeWidth=1;align=center;outlineConnect=0;dashed=0;outlineConnect=0;shape=mxgraph.aws3d.rds;fillColor=#ECECEC;strokeColor=#5E5E5E;aspect=fixed;" vertex="1" parent="1">
          <mxGeometry x="1260" y="2497.79" width="123" height="133" as="geometry" />
        </mxCell>
        <mxCell id="ZxzjjC5gdZ-cjDVPfvcw-150" value="Database" style="text;html=1;align=center;verticalAlign=middle;whiteSpace=wrap;rounded=0;" vertex="1" parent="1">
          <mxGeometry x="1291.5" y="2639.2" width="60" height="30" as="geometry" />
        </mxCell>
        <mxCell id="ZxzjjC5gdZ-cjDVPfvcw-151" value="Cache" style="text;html=1;align=center;verticalAlign=middle;whiteSpace=wrap;rounded=0;" vertex="1" parent="1">
          <mxGeometry x="1101.4899999999998" y="2639.2" width="60" height="30" as="geometry" />
        </mxCell>
        <mxCell id="ZxzjjC5gdZ-cjDVPfvcw-167" style="edgeStyle=orthogonalEdgeStyle;rounded=0;orthogonalLoop=1;jettySize=auto;html=1;" edge="1" parent="1" source="ZxzjjC5gdZ-cjDVPfvcw-152" target="ZxzjjC5gdZ-cjDVPfvcw-149">
          <mxGeometry relative="1" as="geometry" />
        </mxCell>
        <mxCell id="ZxzjjC5gdZ-cjDVPfvcw-152" value="" style="verticalLabelPosition=bottom;html=1;verticalAlign=top;strokeWidth=1;align=center;outlineConnect=0;dashed=0;outlineConnect=0;shape=mxgraph.aws3d.dynamoDb;fillColor=#ECECEC;strokeColor=#5E5E5E;aspect=fixed;" vertex="1" parent="1">
          <mxGeometry x="1080.9" y="2505.79" width="101.19" height="117.08" as="geometry" />
        </mxCell>
        <mxCell id="ZxzjjC5gdZ-cjDVPfvcw-142" value="&lt;div style=&quot;font-size: 8px;&quot;&gt;&lt;/div&gt;" style="verticalLabelPosition=middle;html=1;verticalAlign=top;strokeWidth=1;align=center;outlineConnect=0;dashed=0;outlineConnect=0;shape=mxgraph.aws3d.dataServer;strokeColor=#666666;aspect=fixed;fillColor=#f5f5f5;labelPosition=center;fontStyle=1;fontSize=33;fontColor=#333333;" vertex="1" parent="1">
          <mxGeometry x="601.5" y="2510.5" width="123" height="106" as="geometry" />
        </mxCell>
        <mxCell id="ZxzjjC5gdZ-cjDVPfvcw-159" value="" style="endArrow=classic;html=1;rounded=0;" edge="1" parent="1">
          <mxGeometry width="50" height="50" relative="1" as="geometry">
            <mxPoint x="735" y="2449" as="sourcePoint" />
            <mxPoint x="865" y="2367" as="targetPoint" />
          </mxGeometry>
        </mxCell>
        <mxCell id="ZxzjjC5gdZ-cjDVPfvcw-160" value="" style="endArrow=classic;html=1;rounded=0;" edge="1" parent="1">
          <mxGeometry width="50" height="50" relative="1" as="geometry">
            <mxPoint x="699" y="2366" as="sourcePoint" />
            <mxPoint x="859" y="2453" as="targetPoint" />
          </mxGeometry>
        </mxCell>
        <mxCell id="ZxzjjC5gdZ-cjDVPfvcw-145" value="&lt;div style=&quot;font-size: 8px;&quot;&gt;&lt;/div&gt;" style="verticalLabelPosition=middle;html=1;verticalAlign=top;strokeWidth=1;align=center;outlineConnect=0;dashed=0;outlineConnect=0;shape=mxgraph.aws3d.dataServer;strokeColor=#666666;aspect=fixed;fillColor=#f5f5f5;labelPosition=center;fontStyle=1;fontSize=33;fontColor=#333333;" vertex="1" parent="1">
          <mxGeometry x="840" y="2281.5" width="123" height="106" as="geometry" />
        </mxCell>
        <mxCell id="ZxzjjC5gdZ-cjDVPfvcw-165" value="" style="endArrow=classic;html=1;rounded=0;" edge="1" parent="1" source="ZxzjjC5gdZ-cjDVPfvcw-145" target="ZxzjjC5gdZ-cjDVPfvcw-139">
          <mxGeometry width="50" height="50" relative="1" as="geometry">
            <mxPoint x="890" y="2470" as="sourcePoint" />
            <mxPoint x="940" y="2420" as="targetPoint" />
          </mxGeometry>
        </mxCell>
        <mxCell id="ZxzjjC5gdZ-cjDVPfvcw-166" value="" style="endArrow=classic;html=1;rounded=0;" edge="1" parent="1" source="ZxzjjC5gdZ-cjDVPfvcw-148" target="ZxzjjC5gdZ-cjDVPfvcw-152">
          <mxGeometry width="50" height="50" relative="1" as="geometry">
            <mxPoint x="890" y="2470" as="sourcePoint" />
            <mxPoint x="940" y="2420" as="targetPoint" />
          </mxGeometry>
        </mxCell>
        <mxCell id="ZxzjjC5gdZ-cjDVPfvcw-174" value="9" style="ellipse;whiteSpace=wrap;html=1;aspect=fixed;fontSize=27;fontStyle=1;spacing=2;spacingLeft=2;spacingTop=1;" vertex="1" parent="1">
          <mxGeometry x="51.5" y="4115.162271567276" width="47.103155911446066" height="47.103155911446066" as="geometry" />
        </mxCell>
        <mxCell id="ZxzjjC5gdZ-cjDVPfvcw-175" style="edgeStyle=orthogonalEdgeStyle;rounded=0;orthogonalLoop=1;jettySize=auto;html=1;" edge="1" parent="1" source="ZxzjjC5gdZ-cjDVPfvcw-176">
          <mxGeometry relative="1" as="geometry">
            <mxPoint x="291.5" y="4323.999999999999" as="targetPoint" />
            <Array as="points">
              <mxPoint x="161.5" y="4820" />
              <mxPoint x="161.5" y="4324" />
            </Array>
          </mxGeometry>
        </mxCell>
        <mxCell id="ZxzjjC5gdZ-cjDVPfvcw-176" value="" style="verticalLabelPosition=bottom;html=1;verticalAlign=top;strokeWidth=1;align=center;outlineConnect=0;dashed=0;outlineConnect=0;shape=mxgraph.aws3d.end_user;strokeColor=none;fillColor=#777777;aspect=fixed;" vertex="1" parent="1">
          <mxGeometry x="67" y="4754.360000000001" width="49" height="100.46" as="geometry" />
        </mxCell>
        <mxCell id="ZxzjjC5gdZ-cjDVPfvcw-179" value="User" style="text;html=1;align=center;verticalAlign=middle;whiteSpace=wrap;rounded=0;" vertex="1" parent="1">
          <mxGeometry x="61.5" y="4880.5" width="60" height="30" as="geometry" />
        </mxCell>
        <mxCell id="ZxzjjC5gdZ-cjDVPfvcw-220" value="Data center 2" style="points=[[0,0],[0.25,0],[0.5,0],[0.75,0],[1,0],[1,0.25],[1,0.5],[1,0.75],[1,1],[0.75,1],[0.5,1],[0.25,1],[0,1],[0,0.75],[0,0.5],[0,0.25]];outlineConnect=0;html=1;whiteSpace=wrap;fontSize=12;fontStyle=0;container=1;pointerEvents=0;collapsible=0;recursiveResize=0;shape=mxgraph.aws4.group;grIcon=mxgraph.aws4.group_corporate_data_center;strokeColor=#82b366;fillColor=#d5e8d4;verticalAlign=top;align=left;spacingLeft=30;dashed=0;" vertex="1" parent="1">
          <mxGeometry x="213.25" y="4855.16" width="1533.75" height="664.84" as="geometry" />
        </mxCell>
        <mxCell id="ZxzjjC5gdZ-cjDVPfvcw-480" value="&lt;b&gt;dev&lt;/b&gt;" style="rounded=0;whiteSpace=wrap;html=1;dashed=1;fillColor=#f5f5f5;fontColor=#333333;strokeColor=#666666;align=left;verticalAlign=bottom;spacingLeft=4;spacingBottom=2;" vertex="1" parent="ZxzjjC5gdZ-cjDVPfvcw-220">
          <mxGeometry x="145.24" y="127.42000000000007" width="1357.01" height="500" as="geometry" />
        </mxCell>
        <mxCell id="ZxzjjC5gdZ-cjDVPfvcw-481" value="&lt;b&gt;stage&lt;/b&gt;" style="rounded=0;whiteSpace=wrap;html=1;dashed=1;fillColor=#f5f5f5;fontColor=#333333;strokeColor=#666666;align=left;verticalAlign=bottom;spacingLeft=4;spacingBottom=2;" vertex="1" parent="ZxzjjC5gdZ-cjDVPfvcw-220">
          <mxGeometry x="103.75" y="87.42000000000007" width="1358.5" height="510" as="geometry" />
        </mxCell>
        <mxCell id="ZxzjjC5gdZ-cjDVPfvcw-482" value="&lt;b&gt;prod&lt;/b&gt;" style="rounded=0;whiteSpace=wrap;html=1;dashed=1;fillColor=#f5f5f5;fontColor=#333333;strokeColor=#666666;align=left;verticalAlign=bottom;spacingLeft=6;spacingBottom=2;" vertex="1" parent="ZxzjjC5gdZ-cjDVPfvcw-220">
          <mxGeometry x="56.75000000000001" y="55.150000000000546" width="1365.5" height="512.27" as="geometry" />
        </mxCell>
        <mxCell id="ZxzjjC5gdZ-cjDVPfvcw-483" value="&lt;div style=&quot;font-size: 8px;&quot;&gt;&lt;/div&gt;" style="verticalLabelPosition=middle;html=1;verticalAlign=top;strokeWidth=1;align=center;outlineConnect=0;dashed=0;outlineConnect=0;shape=mxgraph.aws3d.dataServer;strokeColor=#666666;aspect=fixed;fillColor=#f5f5f5;labelPosition=center;fontStyle=1;fontSize=33;fontColor=#333333;" vertex="1" parent="ZxzjjC5gdZ-cjDVPfvcw-220">
          <mxGeometry x="463.75" y="77.92000000000007" width="123" height="106" as="geometry" />
        </mxCell>
        <mxCell id="ZxzjjC5gdZ-cjDVPfvcw-484" value="&lt;div style=&quot;font-size: 8px;&quot;&gt;&lt;/div&gt;" style="verticalLabelPosition=middle;html=1;verticalAlign=top;strokeWidth=1;align=center;outlineConnect=0;dashed=0;outlineConnect=0;shape=mxgraph.aws3d.dataServer;strokeColor=#666666;aspect=fixed;fillColor=#f5f5f5;labelPosition=center;fontStyle=1;fontSize=33;fontColor=#333333;" vertex="1" parent="ZxzjjC5gdZ-cjDVPfvcw-220">
          <mxGeometry x="443.75" y="117.42000000000007" width="123" height="106" as="geometry" />
        </mxCell>
        <mxCell id="ZxzjjC5gdZ-cjDVPfvcw-485" style="edgeStyle=orthogonalEdgeStyle;rounded=0;orthogonalLoop=1;jettySize=auto;html=1;" edge="1" parent="ZxzjjC5gdZ-cjDVPfvcw-220" source="ZxzjjC5gdZ-cjDVPfvcw-486" target="ZxzjjC5gdZ-cjDVPfvcw-524">
          <mxGeometry relative="1" as="geometry">
            <Array as="points">
              <mxPoint x="485.25" y="286.4200000000001" />
            </Array>
          </mxGeometry>
        </mxCell>
        <mxCell id="ZxzjjC5gdZ-cjDVPfvcw-486" value="&lt;div style=&quot;font-size: 8px;&quot;&gt;&lt;/div&gt;" style="verticalLabelPosition=middle;html=1;verticalAlign=top;strokeWidth=1;align=center;outlineConnect=0;dashed=0;outlineConnect=0;shape=mxgraph.aws3d.dataServer;strokeColor=#666666;aspect=fixed;fillColor=#f5f5f5;labelPosition=center;fontStyle=1;fontSize=33;fontColor=#333333;" vertex="1" parent="ZxzjjC5gdZ-cjDVPfvcw-220">
          <mxGeometry x="423.75" y="158.42000000000007" width="123" height="106" as="geometry" />
        </mxCell>
        <mxCell id="ZxzjjC5gdZ-cjDVPfvcw-487" value="Microservices" style="text;html=1;align=center;verticalAlign=middle;whiteSpace=wrap;rounded=0;" vertex="1" parent="ZxzjjC5gdZ-cjDVPfvcw-220">
          <mxGeometry x="566" y="526.6199999999999" width="95.5" height="30" as="geometry" />
        </mxCell>
        <mxCell id="ZxzjjC5gdZ-cjDVPfvcw-488" style="edgeStyle=orthogonalEdgeStyle;rounded=0;orthogonalLoop=1;jettySize=auto;html=1;" edge="1" parent="ZxzjjC5gdZ-cjDVPfvcw-220" source="ZxzjjC5gdZ-cjDVPfvcw-489" target="ZxzjjC5gdZ-cjDVPfvcw-529">
          <mxGeometry relative="1" as="geometry">
            <Array as="points">
              <mxPoint x="1249.25" y="211.42000000000007" />
              <mxPoint x="1249.25" y="297.4200000000001" />
            </Array>
          </mxGeometry>
        </mxCell>
        <mxCell id="ZxzjjC5gdZ-cjDVPfvcw-489" value="" style="verticalLabelPosition=bottom;html=1;verticalAlign=top;strokeWidth=1;align=center;outlineConnect=0;dashed=0;outlineConnect=0;shape=mxgraph.aws3d.rds;fillColor=#ECECEC;strokeColor=#5E5E5E;aspect=fixed;" vertex="1" parent="ZxzjjC5gdZ-cjDVPfvcw-220">
          <mxGeometry x="1083.75" y="144.92000000000007" width="123" height="133" as="geometry" />
        </mxCell>
        <mxCell id="ZxzjjC5gdZ-cjDVPfvcw-490" value="Database" style="text;html=1;align=center;verticalAlign=middle;whiteSpace=wrap;rounded=0;" vertex="1" parent="ZxzjjC5gdZ-cjDVPfvcw-220">
          <mxGeometry x="1115.25" y="286.3299999999999" width="60" height="30" as="geometry" />
        </mxCell>
        <mxCell id="ZxzjjC5gdZ-cjDVPfvcw-491" style="edgeStyle=orthogonalEdgeStyle;rounded=0;orthogonalLoop=1;jettySize=auto;html=1;" edge="1" parent="ZxzjjC5gdZ-cjDVPfvcw-220" source="ZxzjjC5gdZ-cjDVPfvcw-493" target="ZxzjjC5gdZ-cjDVPfvcw-486">
          <mxGeometry relative="1" as="geometry" />
        </mxCell>
        <mxCell id="ZxzjjC5gdZ-cjDVPfvcw-492" style="edgeStyle=orthogonalEdgeStyle;rounded=0;orthogonalLoop=1;jettySize=auto;html=1;" edge="1" parent="ZxzjjC5gdZ-cjDVPfvcw-220" source="ZxzjjC5gdZ-cjDVPfvcw-493" target="ZxzjjC5gdZ-cjDVPfvcw-503">
          <mxGeometry relative="1" as="geometry">
            <Array as="points">
              <mxPoint x="383.75" y="211.42000000000007" />
              <mxPoint x="383.75" y="360.4200000000001" />
            </Array>
          </mxGeometry>
        </mxCell>
        <mxCell id="ZxzjjC5gdZ-cjDVPfvcw-493" value="" style="verticalLabelPosition=bottom;html=1;verticalAlign=top;strokeWidth=1;align=center;outlineConnect=0;dashed=0;outlineConnect=0;shape=mxgraph.aws3d.elasticLoadBalancing;fillColor=#ECECEC;strokeColor=#5E5E5E;aspect=fixed;" vertex="1" parent="ZxzjjC5gdZ-cjDVPfvcw-220">
          <mxGeometry x="233.5" y="167.32999999999993" width="92" height="88.17" as="geometry" />
        </mxCell>
        <mxCell id="ZxzjjC5gdZ-cjDVPfvcw-494" value="Load balancer" style="text;html=1;align=center;verticalAlign=middle;whiteSpace=wrap;rounded=0;" vertex="1" parent="ZxzjjC5gdZ-cjDVPfvcw-220">
          <mxGeometry x="243.75" y="286.3299999999999" width="94.25" height="30" as="geometry" />
        </mxCell>
        <mxCell id="ZxzjjC5gdZ-cjDVPfvcw-495" style="edgeStyle=orthogonalEdgeStyle;rounded=0;orthogonalLoop=1;jettySize=auto;html=1;" edge="1" parent="ZxzjjC5gdZ-cjDVPfvcw-220" source="ZxzjjC5gdZ-cjDVPfvcw-496" target="ZxzjjC5gdZ-cjDVPfvcw-493">
          <mxGeometry relative="1" as="geometry" />
        </mxCell>
        <mxCell id="ZxzjjC5gdZ-cjDVPfvcw-496" value="" style="verticalLabelPosition=bottom;html=1;verticalAlign=top;strokeWidth=1;align=center;outlineConnect=0;dashed=0;outlineConnect=0;shape=mxgraph.aws3d.cloudfront;fillColor=#ECECEC;strokeColor=#5E5E5E;aspect=fixed;" vertex="1" parent="ZxzjjC5gdZ-cjDVPfvcw-220">
          <mxGeometry x="83.75" y="147.92000000000007" width="77.03" height="126" as="geometry" />
        </mxCell>
        <mxCell id="ZxzjjC5gdZ-cjDVPfvcw-497" value="CDN" style="text;html=1;align=center;verticalAlign=middle;whiteSpace=wrap;rounded=0;" vertex="1" parent="ZxzjjC5gdZ-cjDVPfvcw-220">
          <mxGeometry x="75.13999999999987" y="286.3299999999999" width="94.25" height="30" as="geometry" />
        </mxCell>
        <mxCell id="ZxzjjC5gdZ-cjDVPfvcw-498" value="Cache" style="text;html=1;align=center;verticalAlign=middle;whiteSpace=wrap;rounded=0;" vertex="1" parent="ZxzjjC5gdZ-cjDVPfvcw-220">
          <mxGeometry x="925.2399999999998" y="286.3299999999999" width="60" height="30" as="geometry" />
        </mxCell>
        <mxCell id="ZxzjjC5gdZ-cjDVPfvcw-499" style="edgeStyle=orthogonalEdgeStyle;rounded=0;orthogonalLoop=1;jettySize=auto;html=1;" edge="1" parent="ZxzjjC5gdZ-cjDVPfvcw-220" source="ZxzjjC5gdZ-cjDVPfvcw-500" target="ZxzjjC5gdZ-cjDVPfvcw-489">
          <mxGeometry relative="1" as="geometry" />
        </mxCell>
        <mxCell id="ZxzjjC5gdZ-cjDVPfvcw-500" value="" style="verticalLabelPosition=bottom;html=1;verticalAlign=top;strokeWidth=1;align=center;outlineConnect=0;dashed=0;outlineConnect=0;shape=mxgraph.aws3d.dynamoDb;fillColor=#ECECEC;strokeColor=#5E5E5E;aspect=fixed;" vertex="1" parent="ZxzjjC5gdZ-cjDVPfvcw-220">
          <mxGeometry x="904.6500000000001" y="152.92000000000007" width="101.19" height="117.08" as="geometry" />
        </mxCell>
        <mxCell id="ZxzjjC5gdZ-cjDVPfvcw-501" value="" style="outlineConnect=0;dashed=0;verticalLabelPosition=bottom;verticalAlign=top;align=center;html=1;shape=mxgraph.aws3.virtual_private_cloud;fillColor=#CCCCCC;gradientColor=none;" vertex="1" parent="ZxzjjC5gdZ-cjDVPfvcw-220">
          <mxGeometry x="26.75" y="37.42000000000007" width="79.5" height="54" as="geometry" />
        </mxCell>
        <mxCell id="ZxzjjC5gdZ-cjDVPfvcw-502" style="edgeStyle=orthogonalEdgeStyle;rounded=0;orthogonalLoop=1;jettySize=auto;html=1;" edge="1" parent="ZxzjjC5gdZ-cjDVPfvcw-220" source="ZxzjjC5gdZ-cjDVPfvcw-503" target="ZxzjjC5gdZ-cjDVPfvcw-524">
          <mxGeometry relative="1" as="geometry">
            <Array as="points">
              <mxPoint x="527.25" y="287.4200000000001" />
            </Array>
          </mxGeometry>
        </mxCell>
        <mxCell id="ZxzjjC5gdZ-cjDVPfvcw-503" value="&lt;div style=&quot;font-size: 8px;&quot;&gt;&lt;/div&gt;" style="verticalLabelPosition=middle;html=1;verticalAlign=top;strokeWidth=1;align=center;outlineConnect=0;dashed=0;outlineConnect=0;shape=mxgraph.aws3d.dataServer;strokeColor=#666666;aspect=fixed;fillColor=#f5f5f5;labelPosition=center;fontStyle=1;fontSize=33;fontColor=#333333;" vertex="1" parent="ZxzjjC5gdZ-cjDVPfvcw-220">
          <mxGeometry x="465.25" y="307.4200000000001" width="123" height="106" as="geometry" />
        </mxCell>
        <mxCell id="ZxzjjC5gdZ-cjDVPfvcw-504" value="&lt;div style=&quot;font-size: 8px;&quot;&gt;&lt;/div&gt;" style="verticalLabelPosition=middle;html=1;verticalAlign=top;strokeWidth=1;align=center;outlineConnect=0;dashed=0;outlineConnect=0;shape=mxgraph.aws3d.dataServer;strokeColor=#666666;aspect=fixed;fillColor=#f5f5f5;labelPosition=center;fontStyle=1;fontSize=33;fontColor=#333333;" vertex="1" parent="ZxzjjC5gdZ-cjDVPfvcw-220">
          <mxGeometry x="445.25" y="346.9200000000001" width="123" height="106" as="geometry" />
        </mxCell>
        <mxCell id="ZxzjjC5gdZ-cjDVPfvcw-505" value="&lt;div style=&quot;font-size: 8px;&quot;&gt;&lt;/div&gt;" style="verticalLabelPosition=middle;html=1;verticalAlign=top;strokeWidth=1;align=center;outlineConnect=0;dashed=0;outlineConnect=0;shape=mxgraph.aws3d.dataServer;strokeColor=#666666;aspect=fixed;fillColor=#f5f5f5;labelPosition=center;fontStyle=1;fontSize=33;fontColor=#333333;" vertex="1" parent="ZxzjjC5gdZ-cjDVPfvcw-220">
          <mxGeometry x="703.75" y="78.42000000000007" width="123" height="106" as="geometry" />
        </mxCell>
        <mxCell id="ZxzjjC5gdZ-cjDVPfvcw-506" value="&lt;div style=&quot;font-size: 8px;&quot;&gt;&lt;/div&gt;" style="verticalLabelPosition=middle;html=1;verticalAlign=top;strokeWidth=1;align=center;outlineConnect=0;dashed=0;outlineConnect=0;shape=mxgraph.aws3d.dataServer;strokeColor=#666666;aspect=fixed;fillColor=#f5f5f5;labelPosition=center;fontStyle=1;fontSize=33;fontColor=#333333;" vertex="1" parent="ZxzjjC5gdZ-cjDVPfvcw-220">
          <mxGeometry x="683.75" y="117.92000000000007" width="123" height="106" as="geometry" />
        </mxCell>
        <mxCell id="ZxzjjC5gdZ-cjDVPfvcw-507" style="edgeStyle=orthogonalEdgeStyle;rounded=0;orthogonalLoop=1;jettySize=auto;html=1;" edge="1" parent="ZxzjjC5gdZ-cjDVPfvcw-220" source="ZxzjjC5gdZ-cjDVPfvcw-509" target="ZxzjjC5gdZ-cjDVPfvcw-524">
          <mxGeometry relative="1" as="geometry">
            <Array as="points">
              <mxPoint x="725.25" y="286.4200000000001" />
            </Array>
          </mxGeometry>
        </mxCell>
        <mxCell id="ZxzjjC5gdZ-cjDVPfvcw-508" style="edgeStyle=orthogonalEdgeStyle;rounded=0;orthogonalLoop=1;jettySize=auto;html=1;startArrow=classic;startFill=1;" edge="1" parent="ZxzjjC5gdZ-cjDVPfvcw-220" source="ZxzjjC5gdZ-cjDVPfvcw-509" target="ZxzjjC5gdZ-cjDVPfvcw-527">
          <mxGeometry relative="1" as="geometry">
            <Array as="points">
              <mxPoint x="812.25" y="359.4200000000001" />
            </Array>
          </mxGeometry>
        </mxCell>
        <mxCell id="ZxzjjC5gdZ-cjDVPfvcw-509" value="&lt;div style=&quot;font-size: 8px;&quot;&gt;&lt;/div&gt;" style="verticalLabelPosition=middle;html=1;verticalAlign=top;strokeWidth=1;align=center;outlineConnect=0;dashed=0;outlineConnect=0;shape=mxgraph.aws3d.dataServer;strokeColor=#666666;aspect=fixed;fillColor=#f5f5f5;labelPosition=center;fontStyle=1;fontSize=33;fontColor=#333333;" vertex="1" parent="ZxzjjC5gdZ-cjDVPfvcw-220">
          <mxGeometry x="663.74" y="306.6700000000001" width="123" height="106" as="geometry" />
        </mxCell>
        <mxCell id="ZxzjjC5gdZ-cjDVPfvcw-510" value="&lt;div style=&quot;font-size: 8px;&quot;&gt;&lt;/div&gt;" style="verticalLabelPosition=middle;html=1;verticalAlign=top;strokeWidth=1;align=center;outlineConnect=0;dashed=0;outlineConnect=0;shape=mxgraph.aws3d.dataServer;strokeColor=#666666;aspect=fixed;fillColor=#f5f5f5;labelPosition=center;fontStyle=1;fontSize=33;fontColor=#333333;" vertex="1" parent="ZxzjjC5gdZ-cjDVPfvcw-220">
          <mxGeometry x="653.74" y="346.1700000000001" width="123" height="106" as="geometry" />
        </mxCell>
        <mxCell id="ZxzjjC5gdZ-cjDVPfvcw-511" value="&lt;div style=&quot;font-size: 8px;&quot;&gt;&lt;/div&gt;" style="verticalLabelPosition=middle;html=1;verticalAlign=top;strokeWidth=1;align=center;outlineConnect=0;dashed=0;outlineConnect=0;shape=mxgraph.aws3d.dataServer;strokeColor=#666666;aspect=fixed;fillColor=#f5f5f5;labelPosition=center;fontStyle=1;fontSize=33;fontColor=#333333;" vertex="1" parent="ZxzjjC5gdZ-cjDVPfvcw-220">
          <mxGeometry x="643.74" y="387.1700000000001" width="123" height="106" as="geometry" />
        </mxCell>
        <mxCell id="ZxzjjC5gdZ-cjDVPfvcw-512" style="edgeStyle=orthogonalEdgeStyle;rounded=0;orthogonalLoop=1;jettySize=auto;html=1;" edge="1" parent="ZxzjjC5gdZ-cjDVPfvcw-220" source="ZxzjjC5gdZ-cjDVPfvcw-513" target="ZxzjjC5gdZ-cjDVPfvcw-529">
          <mxGeometry relative="1" as="geometry">
            <Array as="points">
              <mxPoint x="1249.25" y="441.4200000000001" />
              <mxPoint x="1249.25" y="357.4200000000001" />
            </Array>
          </mxGeometry>
        </mxCell>
        <mxCell id="ZxzjjC5gdZ-cjDVPfvcw-513" value="" style="verticalLabelPosition=bottom;html=1;verticalAlign=top;strokeWidth=1;align=center;outlineConnect=0;dashed=0;outlineConnect=0;shape=mxgraph.aws3d.rds;fillColor=#ECECEC;strokeColor=#5E5E5E;aspect=fixed;" vertex="1" parent="ZxzjjC5gdZ-cjDVPfvcw-220">
          <mxGeometry x="1083.75" y="375.21000000000004" width="123" height="133" as="geometry" />
        </mxCell>
        <mxCell id="ZxzjjC5gdZ-cjDVPfvcw-514" value="Database" style="text;html=1;align=center;verticalAlign=middle;whiteSpace=wrap;rounded=0;" vertex="1" parent="ZxzjjC5gdZ-cjDVPfvcw-220">
          <mxGeometry x="1115.25" y="516.6199999999999" width="60" height="30" as="geometry" />
        </mxCell>
        <mxCell id="ZxzjjC5gdZ-cjDVPfvcw-515" value="Cache" style="text;html=1;align=center;verticalAlign=middle;whiteSpace=wrap;rounded=0;" vertex="1" parent="ZxzjjC5gdZ-cjDVPfvcw-220">
          <mxGeometry x="925.2399999999998" y="516.6199999999999" width="60" height="30" as="geometry" />
        </mxCell>
        <mxCell id="ZxzjjC5gdZ-cjDVPfvcw-516" style="edgeStyle=orthogonalEdgeStyle;rounded=0;orthogonalLoop=1;jettySize=auto;html=1;" edge="1" parent="ZxzjjC5gdZ-cjDVPfvcw-220" source="ZxzjjC5gdZ-cjDVPfvcw-517" target="ZxzjjC5gdZ-cjDVPfvcw-513">
          <mxGeometry relative="1" as="geometry" />
        </mxCell>
        <mxCell id="ZxzjjC5gdZ-cjDVPfvcw-517" value="" style="verticalLabelPosition=bottom;html=1;verticalAlign=top;strokeWidth=1;align=center;outlineConnect=0;dashed=0;outlineConnect=0;shape=mxgraph.aws3d.dynamoDb;fillColor=#ECECEC;strokeColor=#5E5E5E;aspect=fixed;" vertex="1" parent="ZxzjjC5gdZ-cjDVPfvcw-220">
          <mxGeometry x="904.6500000000001" y="383.21000000000004" width="101.19" height="117.08" as="geometry" />
        </mxCell>
        <mxCell id="ZxzjjC5gdZ-cjDVPfvcw-518" value="&lt;div style=&quot;font-size: 8px;&quot;&gt;&lt;/div&gt;" style="verticalLabelPosition=middle;html=1;verticalAlign=top;strokeWidth=1;align=center;outlineConnect=0;dashed=0;outlineConnect=0;shape=mxgraph.aws3d.dataServer;strokeColor=#666666;aspect=fixed;fillColor=#f5f5f5;labelPosition=center;fontStyle=1;fontSize=33;fontColor=#333333;" vertex="1" parent="ZxzjjC5gdZ-cjDVPfvcw-220">
          <mxGeometry x="425.25" y="387.9200000000001" width="123" height="106" as="geometry" />
        </mxCell>
        <mxCell id="ZxzjjC5gdZ-cjDVPfvcw-519" style="edgeStyle=orthogonalEdgeStyle;rounded=0;orthogonalLoop=1;jettySize=auto;html=1;" edge="1" parent="ZxzjjC5gdZ-cjDVPfvcw-220" source="ZxzjjC5gdZ-cjDVPfvcw-521" target="ZxzjjC5gdZ-cjDVPfvcw-524">
          <mxGeometry relative="1" as="geometry">
            <Array as="points">
              <mxPoint x="725.25" y="286.4200000000001" />
            </Array>
          </mxGeometry>
        </mxCell>
        <mxCell id="ZxzjjC5gdZ-cjDVPfvcw-520" style="edgeStyle=orthogonalEdgeStyle;rounded=0;orthogonalLoop=1;jettySize=auto;html=1;startArrow=classic;startFill=1;" edge="1" parent="ZxzjjC5gdZ-cjDVPfvcw-220" source="ZxzjjC5gdZ-cjDVPfvcw-521" target="ZxzjjC5gdZ-cjDVPfvcw-527">
          <mxGeometry relative="1" as="geometry">
            <Array as="points">
              <mxPoint x="812.25" y="227.42000000000007" />
            </Array>
          </mxGeometry>
        </mxCell>
        <mxCell id="ZxzjjC5gdZ-cjDVPfvcw-521" value="&lt;div style=&quot;font-size: 8px;&quot;&gt;&lt;/div&gt;" style="verticalLabelPosition=middle;html=1;verticalAlign=top;strokeWidth=1;align=center;outlineConnect=0;dashed=0;outlineConnect=0;shape=mxgraph.aws3d.dataServer;strokeColor=#666666;aspect=fixed;fillColor=#f5f5f5;labelPosition=center;fontStyle=1;fontSize=33;fontColor=#333333;" vertex="1" parent="ZxzjjC5gdZ-cjDVPfvcw-220">
          <mxGeometry x="663.75" y="158.92000000000007" width="123" height="106" as="geometry" />
        </mxCell>
        <mxCell id="ZxzjjC5gdZ-cjDVPfvcw-522" value="" style="endArrow=classic;html=1;rounded=0;" edge="1" parent="ZxzjjC5gdZ-cjDVPfvcw-220" source="ZxzjjC5gdZ-cjDVPfvcw-521" target="ZxzjjC5gdZ-cjDVPfvcw-500">
          <mxGeometry width="50" height="50" relative="1" as="geometry">
            <mxPoint x="713.75" y="347.4200000000001" as="sourcePoint" />
            <mxPoint x="763.75" y="297.4200000000001" as="targetPoint" />
          </mxGeometry>
        </mxCell>
        <mxCell id="ZxzjjC5gdZ-cjDVPfvcw-523" value="" style="endArrow=classic;html=1;rounded=0;" edge="1" parent="ZxzjjC5gdZ-cjDVPfvcw-220" source="ZxzjjC5gdZ-cjDVPfvcw-511" target="ZxzjjC5gdZ-cjDVPfvcw-517">
          <mxGeometry width="50" height="50" relative="1" as="geometry">
            <mxPoint x="713.75" y="347.4200000000001" as="sourcePoint" />
            <mxPoint x="763.75" y="297.4200000000001" as="targetPoint" />
          </mxGeometry>
        </mxCell>
        <mxCell id="ZxzjjC5gdZ-cjDVPfvcw-524" value="" style="sketch=0;outlineConnect=0;fontColor=#232F3E;gradientColor=none;fillColor=#8C4FFF;strokeColor=none;dashed=0;verticalLabelPosition=bottom;verticalAlign=top;align=center;html=1;fontSize=12;fontStyle=0;aspect=fixed;pointerEvents=1;shape=mxgraph.aws4.virtual_router;" vertex="1" parent="ZxzjjC5gdZ-cjDVPfvcw-220">
          <mxGeometry x="588.25" y="255.5" width="57.75" height="57.75" as="geometry" />
        </mxCell>
        <mxCell id="ZxzjjC5gdZ-cjDVPfvcw-525" value="Service mesh" style="text;html=1;align=center;verticalAlign=middle;whiteSpace=wrap;rounded=0;" vertex="1" parent="ZxzjjC5gdZ-cjDVPfvcw-220">
          <mxGeometry x="570.13" y="307.4200000000001" width="94" height="30" as="geometry" />
        </mxCell>
        <mxCell id="ZxzjjC5gdZ-cjDVPfvcw-526" style="edgeStyle=orthogonalEdgeStyle;rounded=0;orthogonalLoop=1;jettySize=auto;html=1;" edge="1" parent="ZxzjjC5gdZ-cjDVPfvcw-220">
          <mxGeometry relative="1" as="geometry">
            <mxPoint x="909.1200000000001" y="331.083529411766" as="sourcePoint" />
            <mxPoint x="1294.3899999999999" y="330.40000000000055" as="targetPoint" />
            <Array as="points">
              <mxPoint x="1101.25" y="331.4200000000001" />
            </Array>
          </mxGeometry>
        </mxCell>
        <mxCell id="ZxzjjC5gdZ-cjDVPfvcw-527" value="" style="html=1;outlineConnect=0;fillColor=#CCCCCC;strokeColor=#6881B3;gradientColor=none;gradientDirection=north;strokeWidth=2;shape=mxgraph.networks.bus;gradientColor=none;gradientDirection=north;fontColor=#ffffff;perimeter=backbonePerimeter;backboneSize=20;" vertex="1" parent="ZxzjjC5gdZ-cjDVPfvcw-220">
          <mxGeometry x="805.25" y="321.28000000000065" width="101.5" height="20" as="geometry" />
        </mxCell>
        <mxCell id="ZxzjjC5gdZ-cjDVPfvcw-528" value="Event bus" style="text;html=1;align=center;verticalAlign=middle;whiteSpace=wrap;rounded=0;" vertex="1" parent="ZxzjjC5gdZ-cjDVPfvcw-220">
          <mxGeometry x="809" y="341.28000000000065" width="94" height="30" as="geometry" />
        </mxCell>
        <mxCell id="ZxzjjC5gdZ-cjDVPfvcw-529" value="" style="verticalLabelPosition=bottom;html=1;verticalAlign=top;strokeWidth=1;align=center;outlineConnect=0;dashed=0;outlineConnect=0;shape=mxgraph.aws3d.redshift;fillColor=#ECECEC;strokeColor=#5E5E5E;aspect=fixed;" vertex="1" parent="ZxzjjC5gdZ-cjDVPfvcw-220">
          <mxGeometry x="1292.02" y="275.9900000000007" width="101.73" height="128.86" as="geometry" />
        </mxCell>
        <mxCell id="ZxzjjC5gdZ-cjDVPfvcw-530" value="Data warehouse" style="text;html=1;align=center;verticalAlign=middle;whiteSpace=wrap;rounded=0;" vertex="1" parent="ZxzjjC5gdZ-cjDVPfvcw-220">
          <mxGeometry x="1294.39" y="413.4200000000001" width="99.36" height="30" as="geometry" />
        </mxCell>
        <mxCell id="ZxzjjC5gdZ-cjDVPfvcw-267" style="edgeStyle=orthogonalEdgeStyle;rounded=0;orthogonalLoop=1;jettySize=auto;html=1;entryX=0.5;entryY=0;entryDx=0;entryDy=0;startArrow=classic;startFill=1;exitX=0.506;exitY=0.843;exitDx=0;exitDy=0;exitPerimeter=0;" edge="1" parent="1" source="ZxzjjC5gdZ-cjDVPfvcw-265">
          <mxGeometry relative="1" as="geometry">
            <mxPoint x="857.5" y="4831.400000000001" as="sourcePoint" />
            <mxPoint x="858" y="4907.73" as="targetPoint" />
          </mxGeometry>
        </mxCell>
        <mxCell id="ZxzjjC5gdZ-cjDVPfvcw-265" value="" style="verticalLabelPosition=bottom;html=1;verticalAlign=top;strokeWidth=1;align=center;outlineConnect=0;dashed=0;outlineConnect=0;shape=mxgraph.aws3d.vpcGateway;fillColor=#ECECEC;strokeColor=#5E5E5E;aspect=fixed;" vertex="1" parent="1">
          <mxGeometry x="816.18" y="4788.6" width="82.64" height="72.8" as="geometry" />
        </mxCell>
        <mxCell id="ZxzjjC5gdZ-cjDVPfvcw-266" value="" style="endArrow=classic;html=1;rounded=0;exitX=0.5;exitY=1;exitDx=0;exitDy=0;startArrow=classic;startFill=1;" edge="1" parent="1" target="ZxzjjC5gdZ-cjDVPfvcw-265">
          <mxGeometry width="50" height="50" relative="1" as="geometry">
            <mxPoint x="858" y="4679.999999999999" as="sourcePoint" />
            <mxPoint x="821.5" y="4740" as="targetPoint" />
          </mxGeometry>
        </mxCell>
        <mxCell id="ZxzjjC5gdZ-cjDVPfvcw-268" value="VPN" style="text;html=1;align=center;verticalAlign=middle;whiteSpace=wrap;rounded=0;" vertex="1" parent="1">
          <mxGeometry x="881.5" y="4810" width="95.5" height="30" as="geometry" />
        </mxCell>
        <mxCell id="ZxzjjC5gdZ-cjDVPfvcw-269" style="edgeStyle=orthogonalEdgeStyle;rounded=0;orthogonalLoop=1;jettySize=auto;html=1;" edge="1" parent="1" source="ZxzjjC5gdZ-cjDVPfvcw-176">
          <mxGeometry relative="1" as="geometry">
            <mxPoint x="291.5" y="5093.999999999999" as="targetPoint" />
            <Array as="points">
              <mxPoint x="162" y="4820" />
              <mxPoint x="162" y="5094" />
            </Array>
          </mxGeometry>
        </mxCell>
        <mxCell id="ZxzjjC5gdZ-cjDVPfvcw-270" value="" style="rounded=0;whiteSpace=wrap;html=1;fillColor=none;" vertex="1" parent="1">
          <mxGeometry x="41.5" y="2800" width="1490" height="630" as="geometry" />
        </mxCell>
        <mxCell id="ZxzjjC5gdZ-cjDVPfvcw-271" value="&lt;b&gt;dev&lt;/b&gt;" style="rounded=0;whiteSpace=wrap;html=1;dashed=1;fillColor=#f5f5f5;fontColor=#333333;strokeColor=#666666;align=left;verticalAlign=bottom;spacingLeft=4;spacingBottom=2;" vertex="1" parent="1">
          <mxGeometry x="312.99" y="2900" width="1188.51" height="500" as="geometry" />
        </mxCell>
        <mxCell id="ZxzjjC5gdZ-cjDVPfvcw-272" value="&lt;b&gt;stage&lt;/b&gt;" style="rounded=0;whiteSpace=wrap;html=1;dashed=1;fillColor=#f5f5f5;fontColor=#333333;strokeColor=#666666;align=left;verticalAlign=bottom;spacingLeft=4;spacingBottom=2;" vertex="1" parent="1">
          <mxGeometry x="271.5" y="2860" width="1190" height="510" as="geometry" />
        </mxCell>
        <mxCell id="ZxzjjC5gdZ-cjDVPfvcw-273" value="&lt;b&gt;prod&lt;/b&gt;" style="rounded=0;whiteSpace=wrap;html=1;dashed=1;fillColor=#f5f5f5;fontColor=#333333;strokeColor=#666666;align=left;verticalAlign=bottom;spacingLeft=6;spacingBottom=2;" vertex="1" parent="1">
          <mxGeometry x="234.5" y="2827.73" width="1187" height="512.27" as="geometry" />
        </mxCell>
        <mxCell id="ZxzjjC5gdZ-cjDVPfvcw-274" value="&lt;div style=&quot;font-size: 8px;&quot;&gt;&lt;/div&gt;" style="verticalLabelPosition=middle;html=1;verticalAlign=top;strokeWidth=1;align=center;outlineConnect=0;dashed=0;outlineConnect=0;shape=mxgraph.aws3d.dataServer;strokeColor=#666666;aspect=fixed;fillColor=#f5f5f5;labelPosition=center;fontStyle=1;fontSize=33;fontColor=#333333;" vertex="1" parent="1">
          <mxGeometry x="641.5" y="2850.5" width="123" height="106" as="geometry" />
        </mxCell>
        <mxCell id="ZxzjjC5gdZ-cjDVPfvcw-275" value="&lt;div style=&quot;font-size: 8px;&quot;&gt;&lt;/div&gt;" style="verticalLabelPosition=middle;html=1;verticalAlign=top;strokeWidth=1;align=center;outlineConnect=0;dashed=0;outlineConnect=0;shape=mxgraph.aws3d.dataServer;strokeColor=#666666;aspect=fixed;fillColor=#f5f5f5;labelPosition=center;fontStyle=1;fontSize=33;fontColor=#333333;" vertex="1" parent="1">
          <mxGeometry x="621.5" y="2890" width="123" height="106" as="geometry" />
        </mxCell>
        <mxCell id="ZxzjjC5gdZ-cjDVPfvcw-276" value="7" style="ellipse;whiteSpace=wrap;html=1;aspect=fixed;fontSize=27;fontStyle=1;spacing=2;spacingLeft=2;spacingTop=1;" vertex="1" parent="1">
          <mxGeometry x="51.5" y="2815.1622715672756" width="47.103155911446066" height="47.103155911446066" as="geometry" />
        </mxCell>
        <mxCell id="ZxzjjC5gdZ-cjDVPfvcw-277" style="edgeStyle=orthogonalEdgeStyle;rounded=0;orthogonalLoop=1;jettySize=auto;html=1;" edge="1" parent="1" source="ZxzjjC5gdZ-cjDVPfvcw-278" target="ZxzjjC5gdZ-cjDVPfvcw-290">
          <mxGeometry relative="1" as="geometry" />
        </mxCell>
        <mxCell id="ZxzjjC5gdZ-cjDVPfvcw-278" value="" style="verticalLabelPosition=bottom;html=1;verticalAlign=top;strokeWidth=1;align=center;outlineConnect=0;dashed=0;outlineConnect=0;shape=mxgraph.aws3d.end_user;strokeColor=none;fillColor=#777777;aspect=fixed;" vertex="1" parent="1">
          <mxGeometry x="95.75" y="2932.77" width="49" height="100.46" as="geometry" />
        </mxCell>
        <mxCell id="ZxzjjC5gdZ-cjDVPfvcw-320" style="edgeStyle=orthogonalEdgeStyle;rounded=0;orthogonalLoop=1;jettySize=auto;html=1;" edge="1" parent="1" source="ZxzjjC5gdZ-cjDVPfvcw-280" target="ZxzjjC5gdZ-cjDVPfvcw-319">
          <mxGeometry relative="1" as="geometry">
            <Array as="points">
              <mxPoint x="663" y="3059" />
            </Array>
          </mxGeometry>
        </mxCell>
        <mxCell id="ZxzjjC5gdZ-cjDVPfvcw-280" value="&lt;div style=&quot;font-size: 8px;&quot;&gt;&lt;/div&gt;" style="verticalLabelPosition=middle;html=1;verticalAlign=top;strokeWidth=1;align=center;outlineConnect=0;dashed=0;outlineConnect=0;shape=mxgraph.aws3d.dataServer;strokeColor=#666666;aspect=fixed;fillColor=#f5f5f5;labelPosition=center;fontStyle=1;fontSize=33;fontColor=#333333;" vertex="1" parent="1">
          <mxGeometry x="601.5" y="2931" width="123" height="106" as="geometry" />
        </mxCell>
        <mxCell id="ZxzjjC5gdZ-cjDVPfvcw-281" value="User" style="text;html=1;align=center;verticalAlign=middle;whiteSpace=wrap;rounded=0;" vertex="1" parent="1">
          <mxGeometry x="90.25" y="3058.91" width="60" height="30" as="geometry" />
        </mxCell>
        <mxCell id="ZxzjjC5gdZ-cjDVPfvcw-282" value="Microservices" style="text;html=1;align=center;verticalAlign=middle;whiteSpace=wrap;rounded=0;" vertex="1" parent="1">
          <mxGeometry x="743.75" y="3299.2" width="95.5" height="30" as="geometry" />
        </mxCell>
        <mxCell id="ZxzjjC5gdZ-cjDVPfvcw-283" value="" style="verticalLabelPosition=bottom;html=1;verticalAlign=top;strokeWidth=1;align=center;outlineConnect=0;dashed=0;outlineConnect=0;shape=mxgraph.aws3d.rds;fillColor=#ECECEC;strokeColor=#5E5E5E;aspect=fixed;" vertex="1" parent="1">
          <mxGeometry x="1261.5" y="2917.5" width="123" height="133" as="geometry" />
        </mxCell>
        <mxCell id="ZxzjjC5gdZ-cjDVPfvcw-284" value="Database" style="text;html=1;align=center;verticalAlign=middle;whiteSpace=wrap;rounded=0;" vertex="1" parent="1">
          <mxGeometry x="1293" y="3058.91" width="60" height="30" as="geometry" />
        </mxCell>
        <mxCell id="ZxzjjC5gdZ-cjDVPfvcw-285" style="edgeStyle=orthogonalEdgeStyle;rounded=0;orthogonalLoop=1;jettySize=auto;html=1;" edge="1" parent="1" source="ZxzjjC5gdZ-cjDVPfvcw-287" target="ZxzjjC5gdZ-cjDVPfvcw-280">
          <mxGeometry relative="1" as="geometry" />
        </mxCell>
        <mxCell id="ZxzjjC5gdZ-cjDVPfvcw-286" style="edgeStyle=orthogonalEdgeStyle;rounded=0;orthogonalLoop=1;jettySize=auto;html=1;" edge="1" parent="1" source="ZxzjjC5gdZ-cjDVPfvcw-287" target="ZxzjjC5gdZ-cjDVPfvcw-297">
          <mxGeometry relative="1" as="geometry">
            <Array as="points">
              <mxPoint x="561.5" y="2984" />
              <mxPoint x="561.5" y="3133" />
            </Array>
          </mxGeometry>
        </mxCell>
        <mxCell id="ZxzjjC5gdZ-cjDVPfvcw-287" value="" style="verticalLabelPosition=bottom;html=1;verticalAlign=top;strokeWidth=1;align=center;outlineConnect=0;dashed=0;outlineConnect=0;shape=mxgraph.aws3d.elasticLoadBalancing;fillColor=#ECECEC;strokeColor=#5E5E5E;aspect=fixed;" vertex="1" parent="1">
          <mxGeometry x="411.25" y="2939.91" width="92" height="88.17" as="geometry" />
        </mxCell>
        <mxCell id="ZxzjjC5gdZ-cjDVPfvcw-288" value="Load balancer" style="text;html=1;align=center;verticalAlign=middle;whiteSpace=wrap;rounded=0;" vertex="1" parent="1">
          <mxGeometry x="421.5" y="3058.91" width="94.25" height="30" as="geometry" />
        </mxCell>
        <mxCell id="ZxzjjC5gdZ-cjDVPfvcw-289" style="edgeStyle=orthogonalEdgeStyle;rounded=0;orthogonalLoop=1;jettySize=auto;html=1;" edge="1" parent="1" source="ZxzjjC5gdZ-cjDVPfvcw-290" target="ZxzjjC5gdZ-cjDVPfvcw-287">
          <mxGeometry relative="1" as="geometry" />
        </mxCell>
        <mxCell id="ZxzjjC5gdZ-cjDVPfvcw-290" value="" style="verticalLabelPosition=bottom;html=1;verticalAlign=top;strokeWidth=1;align=center;outlineConnect=0;dashed=0;outlineConnect=0;shape=mxgraph.aws3d.cloudfront;fillColor=#ECECEC;strokeColor=#5E5E5E;aspect=fixed;" vertex="1" parent="1">
          <mxGeometry x="261.5" y="2920.5" width="77.03" height="126" as="geometry" />
        </mxCell>
        <mxCell id="ZxzjjC5gdZ-cjDVPfvcw-291" value="CDN" style="text;html=1;align=center;verticalAlign=middle;whiteSpace=wrap;rounded=0;" vertex="1" parent="1">
          <mxGeometry x="252.88999999999987" y="3058.91" width="94.25" height="30" as="geometry" />
        </mxCell>
        <mxCell id="ZxzjjC5gdZ-cjDVPfvcw-292" value="Cache" style="text;html=1;align=center;verticalAlign=middle;whiteSpace=wrap;rounded=0;" vertex="1" parent="1">
          <mxGeometry x="1102.9899999999998" y="3058.91" width="60" height="30" as="geometry" />
        </mxCell>
        <mxCell id="ZxzjjC5gdZ-cjDVPfvcw-293" style="edgeStyle=orthogonalEdgeStyle;rounded=0;orthogonalLoop=1;jettySize=auto;html=1;" edge="1" parent="1" source="ZxzjjC5gdZ-cjDVPfvcw-294" target="ZxzjjC5gdZ-cjDVPfvcw-283">
          <mxGeometry relative="1" as="geometry" />
        </mxCell>
        <mxCell id="ZxzjjC5gdZ-cjDVPfvcw-294" value="" style="verticalLabelPosition=bottom;html=1;verticalAlign=top;strokeWidth=1;align=center;outlineConnect=0;dashed=0;outlineConnect=0;shape=mxgraph.aws3d.dynamoDb;fillColor=#ECECEC;strokeColor=#5E5E5E;aspect=fixed;" vertex="1" parent="1">
          <mxGeometry x="1082.4" y="2925.5" width="101.19" height="117.08" as="geometry" />
        </mxCell>
        <mxCell id="ZxzjjC5gdZ-cjDVPfvcw-295" value="" style="outlineConnect=0;dashed=0;verticalLabelPosition=bottom;verticalAlign=top;align=center;html=1;shape=mxgraph.aws3.virtual_private_cloud;fillColor=#CCCCCC;gradientColor=none;" vertex="1" parent="1">
          <mxGeometry x="204.5" y="2810" width="79.5" height="54" as="geometry" />
        </mxCell>
        <mxCell id="ZxzjjC5gdZ-cjDVPfvcw-323" style="edgeStyle=orthogonalEdgeStyle;rounded=0;orthogonalLoop=1;jettySize=auto;html=1;" edge="1" parent="1" source="ZxzjjC5gdZ-cjDVPfvcw-297" target="ZxzjjC5gdZ-cjDVPfvcw-319">
          <mxGeometry relative="1" as="geometry">
            <Array as="points">
              <mxPoint x="705" y="3060" />
            </Array>
          </mxGeometry>
        </mxCell>
        <mxCell id="ZxzjjC5gdZ-cjDVPfvcw-297" value="&lt;div style=&quot;font-size: 8px;&quot;&gt;&lt;/div&gt;" style="verticalLabelPosition=middle;html=1;verticalAlign=top;strokeWidth=1;align=center;outlineConnect=0;dashed=0;outlineConnect=0;shape=mxgraph.aws3d.dataServer;strokeColor=#666666;aspect=fixed;fillColor=#f5f5f5;labelPosition=center;fontStyle=1;fontSize=33;fontColor=#333333;" vertex="1" parent="1">
          <mxGeometry x="643" y="3080" width="123" height="106" as="geometry" />
        </mxCell>
        <mxCell id="ZxzjjC5gdZ-cjDVPfvcw-298" value="&lt;div style=&quot;font-size: 8px;&quot;&gt;&lt;/div&gt;" style="verticalLabelPosition=middle;html=1;verticalAlign=top;strokeWidth=1;align=center;outlineConnect=0;dashed=0;outlineConnect=0;shape=mxgraph.aws3d.dataServer;strokeColor=#666666;aspect=fixed;fillColor=#f5f5f5;labelPosition=center;fontStyle=1;fontSize=33;fontColor=#333333;" vertex="1" parent="1">
          <mxGeometry x="623" y="3119.5" width="123" height="106" as="geometry" />
        </mxCell>
        <mxCell id="ZxzjjC5gdZ-cjDVPfvcw-299" value="&lt;div style=&quot;font-size: 8px;&quot;&gt;&lt;/div&gt;" style="verticalLabelPosition=middle;html=1;verticalAlign=top;strokeWidth=1;align=center;outlineConnect=0;dashed=0;outlineConnect=0;shape=mxgraph.aws3d.dataServer;strokeColor=#666666;aspect=fixed;fillColor=#f5f5f5;labelPosition=center;fontStyle=1;fontSize=33;fontColor=#333333;" vertex="1" parent="1">
          <mxGeometry x="881.5" y="2851" width="123" height="106" as="geometry" />
        </mxCell>
        <mxCell id="ZxzjjC5gdZ-cjDVPfvcw-300" value="&lt;div style=&quot;font-size: 8px;&quot;&gt;&lt;/div&gt;" style="verticalLabelPosition=middle;html=1;verticalAlign=top;strokeWidth=1;align=center;outlineConnect=0;dashed=0;outlineConnect=0;shape=mxgraph.aws3d.dataServer;strokeColor=#666666;aspect=fixed;fillColor=#f5f5f5;labelPosition=center;fontStyle=1;fontSize=33;fontColor=#333333;" vertex="1" parent="1">
          <mxGeometry x="861.5" y="2890.5" width="123" height="106" as="geometry" />
        </mxCell>
        <mxCell id="ZxzjjC5gdZ-cjDVPfvcw-325" style="edgeStyle=orthogonalEdgeStyle;rounded=0;orthogonalLoop=1;jettySize=auto;html=1;" edge="1" parent="1" source="ZxzjjC5gdZ-cjDVPfvcw-303" target="ZxzjjC5gdZ-cjDVPfvcw-319">
          <mxGeometry relative="1" as="geometry">
            <Array as="points">
              <mxPoint x="903" y="3059" />
            </Array>
          </mxGeometry>
        </mxCell>
        <mxCell id="ZxzjjC5gdZ-cjDVPfvcw-303" value="&lt;div style=&quot;font-size: 8px;&quot;&gt;&lt;/div&gt;" style="verticalLabelPosition=middle;html=1;verticalAlign=top;strokeWidth=1;align=center;outlineConnect=0;dashed=0;outlineConnect=0;shape=mxgraph.aws3d.dataServer;strokeColor=#666666;aspect=fixed;fillColor=#f5f5f5;labelPosition=center;fontStyle=1;fontSize=33;fontColor=#333333;" vertex="1" parent="1">
          <mxGeometry x="841.49" y="3079.25" width="123" height="106" as="geometry" />
        </mxCell>
        <mxCell id="ZxzjjC5gdZ-cjDVPfvcw-304" value="&lt;div style=&quot;font-size: 8px;&quot;&gt;&lt;/div&gt;" style="verticalLabelPosition=middle;html=1;verticalAlign=top;strokeWidth=1;align=center;outlineConnect=0;dashed=0;outlineConnect=0;shape=mxgraph.aws3d.dataServer;strokeColor=#666666;aspect=fixed;fillColor=#f5f5f5;labelPosition=center;fontStyle=1;fontSize=33;fontColor=#333333;" vertex="1" parent="1">
          <mxGeometry x="831.49" y="3118.75" width="123" height="106" as="geometry" />
        </mxCell>
        <mxCell id="ZxzjjC5gdZ-cjDVPfvcw-305" value="&lt;div style=&quot;font-size: 8px;&quot;&gt;&lt;/div&gt;" style="verticalLabelPosition=middle;html=1;verticalAlign=top;strokeWidth=1;align=center;outlineConnect=0;dashed=0;outlineConnect=0;shape=mxgraph.aws3d.dataServer;strokeColor=#666666;aspect=fixed;fillColor=#f5f5f5;labelPosition=center;fontStyle=1;fontSize=33;fontColor=#333333;" vertex="1" parent="1">
          <mxGeometry x="821.49" y="3159.75" width="123" height="106" as="geometry" />
        </mxCell>
        <mxCell id="ZxzjjC5gdZ-cjDVPfvcw-306" value="" style="verticalLabelPosition=bottom;html=1;verticalAlign=top;strokeWidth=1;align=center;outlineConnect=0;dashed=0;outlineConnect=0;shape=mxgraph.aws3d.rds;fillColor=#ECECEC;strokeColor=#5E5E5E;aspect=fixed;" vertex="1" parent="1">
          <mxGeometry x="1261.5" y="3147.79" width="123" height="133" as="geometry" />
        </mxCell>
        <mxCell id="ZxzjjC5gdZ-cjDVPfvcw-307" value="Database" style="text;html=1;align=center;verticalAlign=middle;whiteSpace=wrap;rounded=0;" vertex="1" parent="1">
          <mxGeometry x="1293" y="3289.2" width="60" height="30" as="geometry" />
        </mxCell>
        <mxCell id="ZxzjjC5gdZ-cjDVPfvcw-308" value="Cache" style="text;html=1;align=center;verticalAlign=middle;whiteSpace=wrap;rounded=0;" vertex="1" parent="1">
          <mxGeometry x="1102.9899999999998" y="3289.2" width="60" height="30" as="geometry" />
        </mxCell>
        <mxCell id="ZxzjjC5gdZ-cjDVPfvcw-309" style="edgeStyle=orthogonalEdgeStyle;rounded=0;orthogonalLoop=1;jettySize=auto;html=1;" edge="1" parent="1" source="ZxzjjC5gdZ-cjDVPfvcw-310" target="ZxzjjC5gdZ-cjDVPfvcw-306">
          <mxGeometry relative="1" as="geometry" />
        </mxCell>
        <mxCell id="ZxzjjC5gdZ-cjDVPfvcw-310" value="" style="verticalLabelPosition=bottom;html=1;verticalAlign=top;strokeWidth=1;align=center;outlineConnect=0;dashed=0;outlineConnect=0;shape=mxgraph.aws3d.dynamoDb;fillColor=#ECECEC;strokeColor=#5E5E5E;aspect=fixed;" vertex="1" parent="1">
          <mxGeometry x="1082.4" y="3155.79" width="101.19" height="117.08" as="geometry" />
        </mxCell>
        <mxCell id="ZxzjjC5gdZ-cjDVPfvcw-311" value="&lt;div style=&quot;font-size: 8px;&quot;&gt;&lt;/div&gt;" style="verticalLabelPosition=middle;html=1;verticalAlign=top;strokeWidth=1;align=center;outlineConnect=0;dashed=0;outlineConnect=0;shape=mxgraph.aws3d.dataServer;strokeColor=#666666;aspect=fixed;fillColor=#f5f5f5;labelPosition=center;fontStyle=1;fontSize=33;fontColor=#333333;" vertex="1" parent="1">
          <mxGeometry x="603" y="3160.5" width="123" height="106" as="geometry" />
        </mxCell>
        <mxCell id="ZxzjjC5gdZ-cjDVPfvcw-322" style="edgeStyle=orthogonalEdgeStyle;rounded=0;orthogonalLoop=1;jettySize=auto;html=1;" edge="1" parent="1" source="ZxzjjC5gdZ-cjDVPfvcw-314" target="ZxzjjC5gdZ-cjDVPfvcw-319">
          <mxGeometry relative="1" as="geometry">
            <Array as="points">
              <mxPoint x="903" y="3059" />
            </Array>
          </mxGeometry>
        </mxCell>
        <mxCell id="ZxzjjC5gdZ-cjDVPfvcw-314" value="&lt;div style=&quot;font-size: 8px;&quot;&gt;&lt;/div&gt;" style="verticalLabelPosition=middle;html=1;verticalAlign=top;strokeWidth=1;align=center;outlineConnect=0;dashed=0;outlineConnect=0;shape=mxgraph.aws3d.dataServer;strokeColor=#666666;aspect=fixed;fillColor=#f5f5f5;labelPosition=center;fontStyle=1;fontSize=33;fontColor=#333333;" vertex="1" parent="1">
          <mxGeometry x="841.5" y="2931.5" width="123" height="106" as="geometry" />
        </mxCell>
        <mxCell id="ZxzjjC5gdZ-cjDVPfvcw-315" value="" style="endArrow=classic;html=1;rounded=0;" edge="1" parent="1" source="ZxzjjC5gdZ-cjDVPfvcw-314" target="ZxzjjC5gdZ-cjDVPfvcw-294">
          <mxGeometry width="50" height="50" relative="1" as="geometry">
            <mxPoint x="891.5" y="3120" as="sourcePoint" />
            <mxPoint x="941.5" y="3070" as="targetPoint" />
          </mxGeometry>
        </mxCell>
        <mxCell id="ZxzjjC5gdZ-cjDVPfvcw-316" value="" style="endArrow=classic;html=1;rounded=0;" edge="1" parent="1" source="ZxzjjC5gdZ-cjDVPfvcw-305" target="ZxzjjC5gdZ-cjDVPfvcw-310">
          <mxGeometry width="50" height="50" relative="1" as="geometry">
            <mxPoint x="891.5" y="3120" as="sourcePoint" />
            <mxPoint x="941.5" y="3070" as="targetPoint" />
          </mxGeometry>
        </mxCell>
        <mxCell id="ZxzjjC5gdZ-cjDVPfvcw-319" value="" style="sketch=0;outlineConnect=0;fontColor=#232F3E;gradientColor=none;fillColor=#8C4FFF;strokeColor=none;dashed=0;verticalLabelPosition=bottom;verticalAlign=top;align=center;html=1;fontSize=12;fontStyle=0;aspect=fixed;pointerEvents=1;shape=mxgraph.aws4.virtual_router;" vertex="1" parent="1">
          <mxGeometry x="766" y="3028.08" width="57.75" height="57.75" as="geometry" />
        </mxCell>
        <mxCell id="ZxzjjC5gdZ-cjDVPfvcw-326" value="Service mesh" style="text;html=1;align=center;verticalAlign=middle;whiteSpace=wrap;rounded=0;" vertex="1" parent="1">
          <mxGeometry x="747.88" y="3080" width="94" height="30" as="geometry" />
        </mxCell>
        <mxCell id="ZxzjjC5gdZ-cjDVPfvcw-374" value="" style="rounded=0;whiteSpace=wrap;html=1;fillColor=none;" vertex="1" parent="1">
          <mxGeometry x="41.5" y="3450" width="1668.5" height="630" as="geometry" />
        </mxCell>
        <mxCell id="ZxzjjC5gdZ-cjDVPfvcw-375" value="&lt;b&gt;dev&lt;/b&gt;" style="rounded=0;whiteSpace=wrap;html=1;dashed=1;fillColor=#f5f5f5;fontColor=#333333;strokeColor=#666666;align=left;verticalAlign=bottom;spacingLeft=4;spacingBottom=2;" vertex="1" parent="1">
          <mxGeometry x="322.99" y="3550" width="1357.01" height="500" as="geometry" />
        </mxCell>
        <mxCell id="ZxzjjC5gdZ-cjDVPfvcw-376" value="&lt;b&gt;stage&lt;/b&gt;" style="rounded=0;whiteSpace=wrap;html=1;dashed=1;fillColor=#f5f5f5;fontColor=#333333;strokeColor=#666666;align=left;verticalAlign=bottom;spacingLeft=4;spacingBottom=2;" vertex="1" parent="1">
          <mxGeometry x="281.5" y="3510" width="1358.5" height="510" as="geometry" />
        </mxCell>
        <mxCell id="ZxzjjC5gdZ-cjDVPfvcw-377" value="&lt;b&gt;prod&lt;/b&gt;" style="rounded=0;whiteSpace=wrap;html=1;dashed=1;fillColor=#f5f5f5;fontColor=#333333;strokeColor=#666666;align=left;verticalAlign=bottom;spacingLeft=6;spacingBottom=2;" vertex="1" parent="1">
          <mxGeometry x="234.5" y="3477.73" width="1365.5" height="512.27" as="geometry" />
        </mxCell>
        <mxCell id="ZxzjjC5gdZ-cjDVPfvcw-378" value="&lt;div style=&quot;font-size: 8px;&quot;&gt;&lt;/div&gt;" style="verticalLabelPosition=middle;html=1;verticalAlign=top;strokeWidth=1;align=center;outlineConnect=0;dashed=0;outlineConnect=0;shape=mxgraph.aws3d.dataServer;strokeColor=#666666;aspect=fixed;fillColor=#f5f5f5;labelPosition=center;fontStyle=1;fontSize=33;fontColor=#333333;" vertex="1" parent="1">
          <mxGeometry x="641.5" y="3500.5" width="123" height="106" as="geometry" />
        </mxCell>
        <mxCell id="ZxzjjC5gdZ-cjDVPfvcw-379" value="&lt;div style=&quot;font-size: 8px;&quot;&gt;&lt;/div&gt;" style="verticalLabelPosition=middle;html=1;verticalAlign=top;strokeWidth=1;align=center;outlineConnect=0;dashed=0;outlineConnect=0;shape=mxgraph.aws3d.dataServer;strokeColor=#666666;aspect=fixed;fillColor=#f5f5f5;labelPosition=center;fontStyle=1;fontSize=33;fontColor=#333333;" vertex="1" parent="1">
          <mxGeometry x="621.5" y="3540" width="123" height="106" as="geometry" />
        </mxCell>
        <mxCell id="ZxzjjC5gdZ-cjDVPfvcw-380" value="8" style="ellipse;whiteSpace=wrap;html=1;aspect=fixed;fontSize=27;fontStyle=1;spacing=2;spacingLeft=2;spacingTop=1;" vertex="1" parent="1">
          <mxGeometry x="51.5" y="3465.1622715672756" width="47.103155911446066" height="47.103155911446066" as="geometry" />
        </mxCell>
        <mxCell id="ZxzjjC5gdZ-cjDVPfvcw-381" style="edgeStyle=orthogonalEdgeStyle;rounded=0;orthogonalLoop=1;jettySize=auto;html=1;" edge="1" parent="1" source="ZxzjjC5gdZ-cjDVPfvcw-382" target="ZxzjjC5gdZ-cjDVPfvcw-394">
          <mxGeometry relative="1" as="geometry" />
        </mxCell>
        <mxCell id="ZxzjjC5gdZ-cjDVPfvcw-382" value="" style="verticalLabelPosition=bottom;html=1;verticalAlign=top;strokeWidth=1;align=center;outlineConnect=0;dashed=0;outlineConnect=0;shape=mxgraph.aws3d.end_user;strokeColor=none;fillColor=#777777;aspect=fixed;" vertex="1" parent="1">
          <mxGeometry x="95.75" y="3582.77" width="49" height="100.46" as="geometry" />
        </mxCell>
        <mxCell id="ZxzjjC5gdZ-cjDVPfvcw-383" style="edgeStyle=orthogonalEdgeStyle;rounded=0;orthogonalLoop=1;jettySize=auto;html=1;" edge="1" parent="1" source="ZxzjjC5gdZ-cjDVPfvcw-384" target="ZxzjjC5gdZ-cjDVPfvcw-419">
          <mxGeometry relative="1" as="geometry">
            <Array as="points">
              <mxPoint x="663" y="3709" />
            </Array>
          </mxGeometry>
        </mxCell>
        <mxCell id="ZxzjjC5gdZ-cjDVPfvcw-384" value="&lt;div style=&quot;font-size: 8px;&quot;&gt;&lt;/div&gt;" style="verticalLabelPosition=middle;html=1;verticalAlign=top;strokeWidth=1;align=center;outlineConnect=0;dashed=0;outlineConnect=0;shape=mxgraph.aws3d.dataServer;strokeColor=#666666;aspect=fixed;fillColor=#f5f5f5;labelPosition=center;fontStyle=1;fontSize=33;fontColor=#333333;" vertex="1" parent="1">
          <mxGeometry x="601.5" y="3581" width="123" height="106" as="geometry" />
        </mxCell>
        <mxCell id="ZxzjjC5gdZ-cjDVPfvcw-385" value="User" style="text;html=1;align=center;verticalAlign=middle;whiteSpace=wrap;rounded=0;" vertex="1" parent="1">
          <mxGeometry x="90.25" y="3708.91" width="60" height="30" as="geometry" />
        </mxCell>
        <mxCell id="ZxzjjC5gdZ-cjDVPfvcw-386" value="Microservices" style="text;html=1;align=center;verticalAlign=middle;whiteSpace=wrap;rounded=0;" vertex="1" parent="1">
          <mxGeometry x="743.75" y="3949.2" width="95.5" height="30" as="geometry" />
        </mxCell>
        <mxCell id="ZxzjjC5gdZ-cjDVPfvcw-426" style="edgeStyle=orthogonalEdgeStyle;rounded=0;orthogonalLoop=1;jettySize=auto;html=1;" edge="1" parent="1" source="ZxzjjC5gdZ-cjDVPfvcw-387" target="ZxzjjC5gdZ-cjDVPfvcw-424">
          <mxGeometry relative="1" as="geometry">
            <Array as="points">
              <mxPoint x="1427" y="3634" />
              <mxPoint x="1427" y="3720" />
            </Array>
          </mxGeometry>
        </mxCell>
        <mxCell id="ZxzjjC5gdZ-cjDVPfvcw-387" value="" style="verticalLabelPosition=bottom;html=1;verticalAlign=top;strokeWidth=1;align=center;outlineConnect=0;dashed=0;outlineConnect=0;shape=mxgraph.aws3d.rds;fillColor=#ECECEC;strokeColor=#5E5E5E;aspect=fixed;" vertex="1" parent="1">
          <mxGeometry x="1261.5" y="3567.5" width="123" height="133" as="geometry" />
        </mxCell>
        <mxCell id="ZxzjjC5gdZ-cjDVPfvcw-388" value="Database" style="text;html=1;align=center;verticalAlign=middle;whiteSpace=wrap;rounded=0;" vertex="1" parent="1">
          <mxGeometry x="1293" y="3708.91" width="60" height="30" as="geometry" />
        </mxCell>
        <mxCell id="ZxzjjC5gdZ-cjDVPfvcw-389" style="edgeStyle=orthogonalEdgeStyle;rounded=0;orthogonalLoop=1;jettySize=auto;html=1;" edge="1" parent="1" source="ZxzjjC5gdZ-cjDVPfvcw-391" target="ZxzjjC5gdZ-cjDVPfvcw-384">
          <mxGeometry relative="1" as="geometry" />
        </mxCell>
        <mxCell id="ZxzjjC5gdZ-cjDVPfvcw-390" style="edgeStyle=orthogonalEdgeStyle;rounded=0;orthogonalLoop=1;jettySize=auto;html=1;" edge="1" parent="1" source="ZxzjjC5gdZ-cjDVPfvcw-391" target="ZxzjjC5gdZ-cjDVPfvcw-401">
          <mxGeometry relative="1" as="geometry">
            <Array as="points">
              <mxPoint x="561.5" y="3634" />
              <mxPoint x="561.5" y="3783" />
            </Array>
          </mxGeometry>
        </mxCell>
        <mxCell id="ZxzjjC5gdZ-cjDVPfvcw-391" value="" style="verticalLabelPosition=bottom;html=1;verticalAlign=top;strokeWidth=1;align=center;outlineConnect=0;dashed=0;outlineConnect=0;shape=mxgraph.aws3d.elasticLoadBalancing;fillColor=#ECECEC;strokeColor=#5E5E5E;aspect=fixed;" vertex="1" parent="1">
          <mxGeometry x="411.25" y="3589.91" width="92" height="88.17" as="geometry" />
        </mxCell>
        <mxCell id="ZxzjjC5gdZ-cjDVPfvcw-392" value="Load balancer" style="text;html=1;align=center;verticalAlign=middle;whiteSpace=wrap;rounded=0;" vertex="1" parent="1">
          <mxGeometry x="421.5" y="3708.91" width="94.25" height="30" as="geometry" />
        </mxCell>
        <mxCell id="ZxzjjC5gdZ-cjDVPfvcw-393" style="edgeStyle=orthogonalEdgeStyle;rounded=0;orthogonalLoop=1;jettySize=auto;html=1;" edge="1" parent="1" source="ZxzjjC5gdZ-cjDVPfvcw-394" target="ZxzjjC5gdZ-cjDVPfvcw-391">
          <mxGeometry relative="1" as="geometry" />
        </mxCell>
        <mxCell id="ZxzjjC5gdZ-cjDVPfvcw-394" value="" style="verticalLabelPosition=bottom;html=1;verticalAlign=top;strokeWidth=1;align=center;outlineConnect=0;dashed=0;outlineConnect=0;shape=mxgraph.aws3d.cloudfront;fillColor=#ECECEC;strokeColor=#5E5E5E;aspect=fixed;" vertex="1" parent="1">
          <mxGeometry x="261.5" y="3570.5" width="77.03" height="126" as="geometry" />
        </mxCell>
        <mxCell id="ZxzjjC5gdZ-cjDVPfvcw-395" value="CDN" style="text;html=1;align=center;verticalAlign=middle;whiteSpace=wrap;rounded=0;" vertex="1" parent="1">
          <mxGeometry x="252.88999999999987" y="3708.91" width="94.25" height="30" as="geometry" />
        </mxCell>
        <mxCell id="ZxzjjC5gdZ-cjDVPfvcw-396" value="Cache" style="text;html=1;align=center;verticalAlign=middle;whiteSpace=wrap;rounded=0;" vertex="1" parent="1">
          <mxGeometry x="1102.9899999999998" y="3708.91" width="60" height="30" as="geometry" />
        </mxCell>
        <mxCell id="ZxzjjC5gdZ-cjDVPfvcw-397" style="edgeStyle=orthogonalEdgeStyle;rounded=0;orthogonalLoop=1;jettySize=auto;html=1;" edge="1" parent="1" source="ZxzjjC5gdZ-cjDVPfvcw-398" target="ZxzjjC5gdZ-cjDVPfvcw-387">
          <mxGeometry relative="1" as="geometry" />
        </mxCell>
        <mxCell id="ZxzjjC5gdZ-cjDVPfvcw-398" value="" style="verticalLabelPosition=bottom;html=1;verticalAlign=top;strokeWidth=1;align=center;outlineConnect=0;dashed=0;outlineConnect=0;shape=mxgraph.aws3d.dynamoDb;fillColor=#ECECEC;strokeColor=#5E5E5E;aspect=fixed;" vertex="1" parent="1">
          <mxGeometry x="1082.4" y="3575.5" width="101.19" height="117.08" as="geometry" />
        </mxCell>
        <mxCell id="ZxzjjC5gdZ-cjDVPfvcw-399" value="" style="outlineConnect=0;dashed=0;verticalLabelPosition=bottom;verticalAlign=top;align=center;html=1;shape=mxgraph.aws3.virtual_private_cloud;fillColor=#CCCCCC;gradientColor=none;" vertex="1" parent="1">
          <mxGeometry x="204.5" y="3460" width="79.5" height="54" as="geometry" />
        </mxCell>
        <mxCell id="ZxzjjC5gdZ-cjDVPfvcw-400" style="edgeStyle=orthogonalEdgeStyle;rounded=0;orthogonalLoop=1;jettySize=auto;html=1;" edge="1" parent="1" source="ZxzjjC5gdZ-cjDVPfvcw-401" target="ZxzjjC5gdZ-cjDVPfvcw-419">
          <mxGeometry relative="1" as="geometry">
            <Array as="points">
              <mxPoint x="705" y="3710" />
            </Array>
          </mxGeometry>
        </mxCell>
        <mxCell id="ZxzjjC5gdZ-cjDVPfvcw-401" value="&lt;div style=&quot;font-size: 8px;&quot;&gt;&lt;/div&gt;" style="verticalLabelPosition=middle;html=1;verticalAlign=top;strokeWidth=1;align=center;outlineConnect=0;dashed=0;outlineConnect=0;shape=mxgraph.aws3d.dataServer;strokeColor=#666666;aspect=fixed;fillColor=#f5f5f5;labelPosition=center;fontStyle=1;fontSize=33;fontColor=#333333;" vertex="1" parent="1">
          <mxGeometry x="643" y="3730" width="123" height="106" as="geometry" />
        </mxCell>
        <mxCell id="ZxzjjC5gdZ-cjDVPfvcw-402" value="&lt;div style=&quot;font-size: 8px;&quot;&gt;&lt;/div&gt;" style="verticalLabelPosition=middle;html=1;verticalAlign=top;strokeWidth=1;align=center;outlineConnect=0;dashed=0;outlineConnect=0;shape=mxgraph.aws3d.dataServer;strokeColor=#666666;aspect=fixed;fillColor=#f5f5f5;labelPosition=center;fontStyle=1;fontSize=33;fontColor=#333333;" vertex="1" parent="1">
          <mxGeometry x="623" y="3769.5" width="123" height="106" as="geometry" />
        </mxCell>
        <mxCell id="ZxzjjC5gdZ-cjDVPfvcw-403" value="&lt;div style=&quot;font-size: 8px;&quot;&gt;&lt;/div&gt;" style="verticalLabelPosition=middle;html=1;verticalAlign=top;strokeWidth=1;align=center;outlineConnect=0;dashed=0;outlineConnect=0;shape=mxgraph.aws3d.dataServer;strokeColor=#666666;aspect=fixed;fillColor=#f5f5f5;labelPosition=center;fontStyle=1;fontSize=33;fontColor=#333333;" vertex="1" parent="1">
          <mxGeometry x="881.5" y="3501" width="123" height="106" as="geometry" />
        </mxCell>
        <mxCell id="ZxzjjC5gdZ-cjDVPfvcw-404" value="&lt;div style=&quot;font-size: 8px;&quot;&gt;&lt;/div&gt;" style="verticalLabelPosition=middle;html=1;verticalAlign=top;strokeWidth=1;align=center;outlineConnect=0;dashed=0;outlineConnect=0;shape=mxgraph.aws3d.dataServer;strokeColor=#666666;aspect=fixed;fillColor=#f5f5f5;labelPosition=center;fontStyle=1;fontSize=33;fontColor=#333333;" vertex="1" parent="1">
          <mxGeometry x="861.5" y="3540.5" width="123" height="106" as="geometry" />
        </mxCell>
        <mxCell id="ZxzjjC5gdZ-cjDVPfvcw-405" style="edgeStyle=orthogonalEdgeStyle;rounded=0;orthogonalLoop=1;jettySize=auto;html=1;" edge="1" parent="1" source="ZxzjjC5gdZ-cjDVPfvcw-406" target="ZxzjjC5gdZ-cjDVPfvcw-419">
          <mxGeometry relative="1" as="geometry">
            <Array as="points">
              <mxPoint x="903" y="3709" />
            </Array>
          </mxGeometry>
        </mxCell>
        <mxCell id="ZxzjjC5gdZ-cjDVPfvcw-423" style="edgeStyle=orthogonalEdgeStyle;rounded=0;orthogonalLoop=1;jettySize=auto;html=1;startArrow=classic;startFill=1;" edge="1" parent="1" source="ZxzjjC5gdZ-cjDVPfvcw-406" target="ZxzjjC5gdZ-cjDVPfvcw-317">
          <mxGeometry relative="1" as="geometry">
            <Array as="points">
              <mxPoint x="990" y="3782" />
            </Array>
          </mxGeometry>
        </mxCell>
        <mxCell id="ZxzjjC5gdZ-cjDVPfvcw-406" value="&lt;div style=&quot;font-size: 8px;&quot;&gt;&lt;/div&gt;" style="verticalLabelPosition=middle;html=1;verticalAlign=top;strokeWidth=1;align=center;outlineConnect=0;dashed=0;outlineConnect=0;shape=mxgraph.aws3d.dataServer;strokeColor=#666666;aspect=fixed;fillColor=#f5f5f5;labelPosition=center;fontStyle=1;fontSize=33;fontColor=#333333;" vertex="1" parent="1">
          <mxGeometry x="841.49" y="3729.25" width="123" height="106" as="geometry" />
        </mxCell>
        <mxCell id="ZxzjjC5gdZ-cjDVPfvcw-407" value="&lt;div style=&quot;font-size: 8px;&quot;&gt;&lt;/div&gt;" style="verticalLabelPosition=middle;html=1;verticalAlign=top;strokeWidth=1;align=center;outlineConnect=0;dashed=0;outlineConnect=0;shape=mxgraph.aws3d.dataServer;strokeColor=#666666;aspect=fixed;fillColor=#f5f5f5;labelPosition=center;fontStyle=1;fontSize=33;fontColor=#333333;" vertex="1" parent="1">
          <mxGeometry x="831.49" y="3768.75" width="123" height="106" as="geometry" />
        </mxCell>
        <mxCell id="ZxzjjC5gdZ-cjDVPfvcw-408" value="&lt;div style=&quot;font-size: 8px;&quot;&gt;&lt;/div&gt;" style="verticalLabelPosition=middle;html=1;verticalAlign=top;strokeWidth=1;align=center;outlineConnect=0;dashed=0;outlineConnect=0;shape=mxgraph.aws3d.dataServer;strokeColor=#666666;aspect=fixed;fillColor=#f5f5f5;labelPosition=center;fontStyle=1;fontSize=33;fontColor=#333333;" vertex="1" parent="1">
          <mxGeometry x="821.49" y="3809.75" width="123" height="106" as="geometry" />
        </mxCell>
        <mxCell id="ZxzjjC5gdZ-cjDVPfvcw-427" style="edgeStyle=orthogonalEdgeStyle;rounded=0;orthogonalLoop=1;jettySize=auto;html=1;" edge="1" parent="1" source="ZxzjjC5gdZ-cjDVPfvcw-409" target="ZxzjjC5gdZ-cjDVPfvcw-424">
          <mxGeometry relative="1" as="geometry">
            <Array as="points">
              <mxPoint x="1427" y="3864" />
              <mxPoint x="1427" y="3780" />
            </Array>
          </mxGeometry>
        </mxCell>
        <mxCell id="ZxzjjC5gdZ-cjDVPfvcw-409" value="" style="verticalLabelPosition=bottom;html=1;verticalAlign=top;strokeWidth=1;align=center;outlineConnect=0;dashed=0;outlineConnect=0;shape=mxgraph.aws3d.rds;fillColor=#ECECEC;strokeColor=#5E5E5E;aspect=fixed;" vertex="1" parent="1">
          <mxGeometry x="1261.5" y="3797.79" width="123" height="133" as="geometry" />
        </mxCell>
        <mxCell id="ZxzjjC5gdZ-cjDVPfvcw-410" value="Database" style="text;html=1;align=center;verticalAlign=middle;whiteSpace=wrap;rounded=0;" vertex="1" parent="1">
          <mxGeometry x="1293" y="3939.2" width="60" height="30" as="geometry" />
        </mxCell>
        <mxCell id="ZxzjjC5gdZ-cjDVPfvcw-411" value="Cache" style="text;html=1;align=center;verticalAlign=middle;whiteSpace=wrap;rounded=0;" vertex="1" parent="1">
          <mxGeometry x="1102.9899999999998" y="3939.2" width="60" height="30" as="geometry" />
        </mxCell>
        <mxCell id="ZxzjjC5gdZ-cjDVPfvcw-412" style="edgeStyle=orthogonalEdgeStyle;rounded=0;orthogonalLoop=1;jettySize=auto;html=1;" edge="1" parent="1" source="ZxzjjC5gdZ-cjDVPfvcw-413" target="ZxzjjC5gdZ-cjDVPfvcw-409">
          <mxGeometry relative="1" as="geometry" />
        </mxCell>
        <mxCell id="ZxzjjC5gdZ-cjDVPfvcw-413" value="" style="verticalLabelPosition=bottom;html=1;verticalAlign=top;strokeWidth=1;align=center;outlineConnect=0;dashed=0;outlineConnect=0;shape=mxgraph.aws3d.dynamoDb;fillColor=#ECECEC;strokeColor=#5E5E5E;aspect=fixed;" vertex="1" parent="1">
          <mxGeometry x="1082.4" y="3805.79" width="101.19" height="117.08" as="geometry" />
        </mxCell>
        <mxCell id="ZxzjjC5gdZ-cjDVPfvcw-414" value="&lt;div style=&quot;font-size: 8px;&quot;&gt;&lt;/div&gt;" style="verticalLabelPosition=middle;html=1;verticalAlign=top;strokeWidth=1;align=center;outlineConnect=0;dashed=0;outlineConnect=0;shape=mxgraph.aws3d.dataServer;strokeColor=#666666;aspect=fixed;fillColor=#f5f5f5;labelPosition=center;fontStyle=1;fontSize=33;fontColor=#333333;" vertex="1" parent="1">
          <mxGeometry x="603" y="3810.5" width="123" height="106" as="geometry" />
        </mxCell>
        <mxCell id="ZxzjjC5gdZ-cjDVPfvcw-415" style="edgeStyle=orthogonalEdgeStyle;rounded=0;orthogonalLoop=1;jettySize=auto;html=1;" edge="1" parent="1" source="ZxzjjC5gdZ-cjDVPfvcw-416" target="ZxzjjC5gdZ-cjDVPfvcw-419">
          <mxGeometry relative="1" as="geometry">
            <Array as="points">
              <mxPoint x="903" y="3709" />
            </Array>
          </mxGeometry>
        </mxCell>
        <mxCell id="ZxzjjC5gdZ-cjDVPfvcw-422" style="edgeStyle=orthogonalEdgeStyle;rounded=0;orthogonalLoop=1;jettySize=auto;html=1;startArrow=classic;startFill=1;" edge="1" parent="1" source="ZxzjjC5gdZ-cjDVPfvcw-416" target="ZxzjjC5gdZ-cjDVPfvcw-317">
          <mxGeometry relative="1" as="geometry">
            <Array as="points">
              <mxPoint x="990" y="3650" />
            </Array>
          </mxGeometry>
        </mxCell>
        <mxCell id="ZxzjjC5gdZ-cjDVPfvcw-416" value="&lt;div style=&quot;font-size: 8px;&quot;&gt;&lt;/div&gt;" style="verticalLabelPosition=middle;html=1;verticalAlign=top;strokeWidth=1;align=center;outlineConnect=0;dashed=0;outlineConnect=0;shape=mxgraph.aws3d.dataServer;strokeColor=#666666;aspect=fixed;fillColor=#f5f5f5;labelPosition=center;fontStyle=1;fontSize=33;fontColor=#333333;" vertex="1" parent="1">
          <mxGeometry x="841.5" y="3581.5" width="123" height="106" as="geometry" />
        </mxCell>
        <mxCell id="ZxzjjC5gdZ-cjDVPfvcw-417" value="" style="endArrow=classic;html=1;rounded=0;" edge="1" parent="1" source="ZxzjjC5gdZ-cjDVPfvcw-416" target="ZxzjjC5gdZ-cjDVPfvcw-398">
          <mxGeometry width="50" height="50" relative="1" as="geometry">
            <mxPoint x="891.5" y="3770" as="sourcePoint" />
            <mxPoint x="941.5" y="3720" as="targetPoint" />
          </mxGeometry>
        </mxCell>
        <mxCell id="ZxzjjC5gdZ-cjDVPfvcw-418" value="" style="endArrow=classic;html=1;rounded=0;" edge="1" parent="1" source="ZxzjjC5gdZ-cjDVPfvcw-408" target="ZxzjjC5gdZ-cjDVPfvcw-413">
          <mxGeometry width="50" height="50" relative="1" as="geometry">
            <mxPoint x="891.5" y="3770" as="sourcePoint" />
            <mxPoint x="941.5" y="3720" as="targetPoint" />
          </mxGeometry>
        </mxCell>
        <mxCell id="ZxzjjC5gdZ-cjDVPfvcw-419" value="" style="sketch=0;outlineConnect=0;fontColor=#232F3E;gradientColor=none;fillColor=#8C4FFF;strokeColor=none;dashed=0;verticalLabelPosition=bottom;verticalAlign=top;align=center;html=1;fontSize=12;fontStyle=0;aspect=fixed;pointerEvents=1;shape=mxgraph.aws4.virtual_router;" vertex="1" parent="1">
          <mxGeometry x="766" y="3678.08" width="57.75" height="57.75" as="geometry" />
        </mxCell>
        <mxCell id="ZxzjjC5gdZ-cjDVPfvcw-420" value="Service mesh" style="text;html=1;align=center;verticalAlign=middle;whiteSpace=wrap;rounded=0;" vertex="1" parent="1">
          <mxGeometry x="747.88" y="3730" width="94" height="30" as="geometry" />
        </mxCell>
        <mxCell id="ZxzjjC5gdZ-cjDVPfvcw-428" style="edgeStyle=orthogonalEdgeStyle;rounded=0;orthogonalLoop=1;jettySize=auto;html=1;" edge="1" parent="1">
          <mxGeometry relative="1" as="geometry">
            <mxPoint x="1086.8700000000001" y="3753.6635294117655" as="sourcePoint" />
            <mxPoint x="1472.1399999999999" y="3752.98" as="targetPoint" />
            <Array as="points">
              <mxPoint x="1279" y="3754" />
            </Array>
          </mxGeometry>
        </mxCell>
        <mxCell id="ZxzjjC5gdZ-cjDVPfvcw-317" value="" style="html=1;outlineConnect=0;fillColor=#CCCCCC;strokeColor=#6881B3;gradientColor=none;gradientDirection=north;strokeWidth=2;shape=mxgraph.networks.bus;gradientColor=none;gradientDirection=north;fontColor=#ffffff;perimeter=backbonePerimeter;backboneSize=20;" vertex="1" parent="1">
          <mxGeometry x="983" y="3743.86" width="101.5" height="20" as="geometry" />
        </mxCell>
        <mxCell id="ZxzjjC5gdZ-cjDVPfvcw-421" value="Event bus" style="text;html=1;align=center;verticalAlign=middle;whiteSpace=wrap;rounded=0;" vertex="1" parent="1">
          <mxGeometry x="986.75" y="3763.86" width="94" height="30" as="geometry" />
        </mxCell>
        <mxCell id="ZxzjjC5gdZ-cjDVPfvcw-424" value="" style="verticalLabelPosition=bottom;html=1;verticalAlign=top;strokeWidth=1;align=center;outlineConnect=0;dashed=0;outlineConnect=0;shape=mxgraph.aws3d.redshift;fillColor=#ECECEC;strokeColor=#5E5E5E;aspect=fixed;" vertex="1" parent="1">
          <mxGeometry x="1469.77" y="3698.57" width="101.73" height="128.86" as="geometry" />
        </mxCell>
        <mxCell id="ZxzjjC5gdZ-cjDVPfvcw-425" value="Data warehouse" style="text;html=1;align=center;verticalAlign=middle;whiteSpace=wrap;rounded=0;" vertex="1" parent="1">
          <mxGeometry x="1472.14" y="3836" width="99.36" height="30" as="geometry" />
        </mxCell>
      </root>
    </mxGraphModel>
  </diagram>
</mxfile>
